<svg id="my-svg" width="100%" xmlns="http://www.w3.org/2000/svg" xmlns:xlink="http://www.w3.org/1999/xlink" class="flowchart" style="max-width: 2760.12px; background-color: white;" viewBox="0 0 2760.125 1268" role="graphics-document document" aria-roledescription="flowchart-v2"><style>#my-svg{font-family:"trebuchet ms",verdana,arial,sans-serif;font-size:16px;fill:#333;}@keyframes edge-animation-frame{from{stroke-dashoffset:0;}}@keyframes dash{to{stroke-dashoffset:0;}}#my-svg .edge-animation-slow{stroke-dasharray:9,5!important;stroke-dashoffset:900;animation:dash 50s linear infinite;stroke-linecap:round;}#my-svg .edge-animation-fast{stroke-dasharray:9,5!important;stroke-dashoffset:900;animation:dash 20s linear infinite;stroke-linecap:round;}#my-svg .error-icon{fill:#552222;}#my-svg .error-text{fill:#552222;stroke:#552222;}#my-svg .edge-thickness-normal{stroke-width:1px;}#my-svg .edge-thickness-thick{stroke-width:3.5px;}#my-svg .edge-pattern-solid{stroke-dasharray:0;}#my-svg .edge-thickness-invisible{stroke-width:0;fill:none;}#my-svg .edge-pattern-dashed{stroke-dasharray:3;}#my-svg .edge-pattern-dotted{stroke-dasharray:2;}#my-svg .marker{fill:#333333;stroke:#333333;}#my-svg .marker.cross{stroke:#333333;}#my-svg svg{font-family:"trebuchet ms",verdana,arial,sans-serif;font-size:16px;}#my-svg p{margin:0;}#my-svg .label{font-family:"trebuchet ms",verdana,arial,sans-serif;color:#333;}#my-svg .cluster-label text{fill:#333;}#my-svg .cluster-label span{color:#333;}#my-svg .cluster-label span p{background-color:transparent;}#my-svg .label text,#my-svg span{fill:#333;color:#333;}#my-svg .node rect,#my-svg .node circle,#my-svg .node ellipse,#my-svg .node polygon,#my-svg .node path{fill:#ECECFF;stroke:#9370DB;stroke-width:1px;}#my-svg .rough-node .label text,#my-svg .node .label text,#my-svg .image-shape .label,#my-svg .icon-shape .label{text-anchor:middle;}#my-svg .node .katex path{fill:#000;stroke:#000;stroke-width:1px;}#my-svg .rough-node .label,#my-svg .node .label,#my-svg .image-shape .label,#my-svg .icon-shape .label{text-align:center;}#my-svg .node.clickable{cursor:pointer;}#my-svg .root .anchor path{fill:#333333!important;stroke-width:0;stroke:#333333;}#my-svg .arrowheadPath{fill:#333333;}#my-svg .edgePath .path{stroke:#333333;stroke-width:1px;}#my-svg .flowchart-link{stroke:#333333;fill:none;}#my-svg .edgeLabel{background-color:rgba(232,232,232, 0.8);text-align:center;}#my-svg .edgeLabel p{background-color:rgba(232,232,232, 0.8);}#my-svg .edgeLabel rect{opacity:0.5;background-color:rgba(232,232,232, 0.8);fill:rgba(232,232,232, 0.8);}#my-svg .labelBkg{background-color:rgba(232, 232, 232, 0.5);}#my-svg .cluster rect{fill:#ffffde;stroke:#aaaa33;stroke-width:1px;}#my-svg .cluster text{fill:#333;}#my-svg .cluster span{color:#333;}#my-svg div.mermaidTooltip{position:absolute;text-align:center;max-width:200px;padding:2px;font-family:"trebuchet ms",verdana,arial,sans-serif;font-size:12px;background:hsl(80, 100%, 96.2745098039%);border:1px solid #aaaa33;border-radius:2px;pointer-events:none;z-index:100;}#my-svg .flowchartTitleText{text-anchor:middle;font-size:18px;fill:#333;}#my-svg rect.text{fill:none;stroke-width:0;}#my-svg .icon-shape,#my-svg .image-shape{background-color:rgba(232,232,232, 0.8);text-align:center;}#my-svg .icon-shape p,#my-svg .image-shape p{background-color:rgba(232,232,232, 0.8);padding:2px;}#my-svg .icon-shape .label rect,#my-svg .image-shape .label rect{opacity:0.5;background-color:rgba(232,232,232, 0.8);fill:rgba(232,232,232, 0.8);}#my-svg .label-icon{display:inline-block;height:1em;overflow:visible;vertical-align:-0.125em;}#my-svg .node .label-icon path{fill:currentColor;stroke:revert;stroke-width:revert;}#my-svg .node .neo-node{stroke:#9370DB;}#my-svg [data-look="neo"].node rect,#my-svg [data-look="neo"].cluster rect,#my-svg [data-look="neo"].node polygon{stroke:#9370DB;filter:drop-shadow(1px 2px 2px rgba(185, 185, 185, 1));}#my-svg [data-look="neo"].node path{stroke:#9370DB;stroke-width:1px;}#my-svg [data-look="neo"].node .outer-path{filter:drop-shadow(1px 2px 2px rgba(185, 185, 185, 1));}#my-svg [data-look="neo"].node .neo-line path{stroke:#9370DB;filter:none;}#my-svg [data-look="neo"].node circle{stroke:#9370DB;filter:drop-shadow(1px 2px 2px rgba(185, 185, 185, 1));}#my-svg [data-look="neo"].node circle .state-start{fill:#000000;}#my-svg [data-look="neo"].icon-shape .icon{fill:#9370DB;filter:drop-shadow(1px 2px 2px rgba(185, 185, 185, 1));}#my-svg [data-look="neo"].icon-shape .icon-neo path{stroke:#9370DB;filter:drop-shadow(1px 2px 2px rgba(185, 185, 185, 1));}#my-svg :root{--mermaid-font-family:"trebuchet ms",verdana,arial,sans-serif;}#my-svg .standard&gt;*{fill:#E8EEF7!important;stroke:#50627A!important;color:#111111!important;}#my-svg .standard span{fill:#E8EEF7!important;stroke:#50627A!important;color:#111111!important;}#my-svg .standard tspan{fill:#111111!important;}#my-svg .bronze&gt;*{fill:#B86B2B!important;stroke:#6B3A12!important;color:#FFFFFF!important;}#my-svg .bronze span{fill:#B86B2B!important;stroke:#6B3A12!important;color:#FFFFFF!important;}#my-svg .bronze tspan{fill:#FFFFFF!important;}#my-svg .staging&gt;*{fill:#D9822B!important;stroke:#8A4A0A!important;color:#FFFFFF!important;}#my-svg .staging span{fill:#D9822B!important;stroke:#8A4A0A!important;color:#FFFFFF!important;}#my-svg .staging tspan{fill:#FFFFFF!important;}#my-svg .silver&gt;*{fill:#C7CCD6!important;stroke:#687080!important;color:#111111!important;}#my-svg .silver span{fill:#C7CCD6!important;stroke:#687080!important;color:#111111!important;}#my-svg .silver tspan{fill:#111111!important;}#my-svg .gold&gt;*{fill:#F2C94C!important;stroke:#9A6B00!important;color:#111111!important;}#my-svg .gold span{fill:#F2C94C!important;stroke:#9A6B00!important;color:#111111!important;}#my-svg .gold tspan{fill:#111111!important;}#my-svg .control&gt;*{fill:#0B3D91!important;stroke:#06275F!important;color:#FFFFFF!important;}#my-svg .control span{fill:#0B3D91!important;stroke:#06275F!important;color:#FFFFFF!important;}#my-svg .control tspan{fill:#FFFFFF!important;}</style><g><marker id="my-svg_flowchart-v2-pointEnd" class="marker flowchart-v2" viewBox="0 0 10 10" refX="5" refY="5" markerUnits="userSpaceOnUse" markerWidth="8" markerHeight="8" orient="auto"><path d="M 0 0 L 10 5 L 0 10 z" class="arrowMarkerPath" style="stroke-width: 1; stroke-dasharray: 1, 0;"/></marker><marker id="my-svg_flowchart-v2-pointStart" class="marker flowchart-v2" viewBox="0 0 10 10" refX="4.5" refY="5" markerUnits="userSpaceOnUse" markerWidth="8" markerHeight="8" orient="auto"><path d="M 0 5 L 10 10 L 10 0 z" class="arrowMarkerPath" style="stroke-width: 1; stroke-dasharray: 1, 0;"/></marker><marker id="my-svg_flowchart-v2-pointEnd-margin" class="marker flowchart-v2" viewBox="0 0 11.5 14" refX="11.5" refY="7" markerUnits="userSpaceOnUse" markerWidth="10.5" markerHeight="14" orient="auto"><path d="M 0 0 L 11.5 7 L 0 14 z" class="arrowMarkerPath" style="stroke-width: 0; stroke-dasharray: 1, 0;"/></marker><marker id="my-svg_flowchart-v2-pointStart-margin" class="marker flowchart-v2" viewBox="0 0 11.5 14" refX="1" refY="7" markerUnits="userSpaceOnUse" markerWidth="11.5" markerHeight="14" orient="auto"><polygon points="0,7 11.5,14 11.5,0" class="arrowMarkerPath" style="stroke-width: 0; stroke-dasharray: 1, 0;"/></marker><marker id="my-svg_flowchart-v2-circleEnd" class="marker flowchart-v2" viewBox="0 0 10 10" refX="11" refY="5" markerUnits="userSpaceOnUse" markerWidth="11" markerHeight="11" orient="auto"><circle cx="5" cy="5" r="5" class="arrowMarkerPath" style="stroke-width: 1; stroke-dasharray: 1, 0;"/></marker><marker id="my-svg_flowchart-v2-circleStart" class="marker flowchart-v2" viewBox="0 0 10 10" refX="-1" refY="5" markerUnits="userSpaceOnUse" markerWidth="11" markerHeight="11" orient="auto"><circle cx="5" cy="5" r="5" class="arrowMarkerPath" style="stroke-width: 1; stroke-dasharray: 1, 0;"/></marker><marker id="my-svg_flowchart-v2-circleEnd-margin" class="marker flowchart-v2" viewBox="0 0 10 10" refY="5" refX="12.25" markerUnits="userSpaceOnUse" markerWidth="14" markerHeight="14" orient="auto"><circle cx="5" cy="5" r="5" class="arrowMarkerPath" style="stroke-width: 0; stroke-dasharray: 1, 0;"/></marker><marker id="my-svg_flowchart-v2-circleStart-margin" class="marker flowchart-v2" viewBox="0 0 10 10" refX="-2" refY="5" markerUnits="userSpaceOnUse" markerWidth="14" markerHeight="14" orient="auto"><circle cx="5" cy="5" r="5" class="arrowMarkerPath" style="stroke-width: 0; stroke-dasharray: 1, 0;"/></marker><marker id="my-svg_flowchart-v2-crossEnd" class="marker cross flowchart-v2" viewBox="0 0 11 11" refX="12" refY="5.2" markerUnits="userSpaceOnUse" markerWidth="11" markerHeight="11" orient="auto"><path d="M 1,1 l 9,9 M 10,1 l -9,9" class="arrowMarkerPath" style="stroke-width: 2; stroke-dasharray: 1, 0;"/></marker><marker id="my-svg_flowchart-v2-crossStart" class="marker cross flowchart-v2" viewBox="0 0 11 11" refX="-1" refY="5.2" markerUnits="userSpaceOnUse" markerWidth="11" markerHeight="11" orient="auto"><path d="M 1,1 l 9,9 M 10,1 l -9,9" class="arrowMarkerPath" style="stroke-width: 2; stroke-dasharray: 1, 0;"/></marker><marker id="my-svg_flowchart-v2-crossEnd-margin" class="marker cross flowchart-v2" viewBox="0 0 15 15" refX="17.7" refY="7.5" markerUnits="userSpaceOnUse" markerWidth="12" markerHeight="12" orient="auto"><path d="M 1,1 L 14,14 M 1,14 L 14,1" class="arrowMarkerPath" style="stroke-width: 2.5;"/></marker><marker id="my-svg_flowchart-v2-crossStart-margin" class="marker cross flowchart-v2" viewBox="0 0 15 15" refX="-3.5" refY="7.5" markerUnits="userSpaceOnUse" markerWidth="12" markerHeight="12" orient="auto"><path d="M 1,1 L 14,14 M 1,14 L 14,1" class="arrowMarkerPath" style="stroke-width: 2.5; stroke-dasharray: 1, 0;"/></marker><g class="root"><g class="clusters"><g class="cluster" id="my-svg-V10" data-look="classic"><rect style="" x="368" y="8" width="2384.125" height="1209"/><g class="cluster-label" transform="translate(1427.9375, 8)"><foreignObject width="264.25" height="24"><div xmlns="http://www.w3.org/1999/xhtml" style="display: table-cell; white-space: nowrap; line-height: 1.5;"><span class="nodeLabel"><p>Fabric v10 Supply Chain Architecture</p></span></div></foreignObject></g></g><g class="cluster" id="my-svg-BOB" data-look="classic"><rect style="" x="8" y="8" width="310" height="1252"/><g class="cluster-label" transform="translate(82.703125, 8)"><foreignObject width="160.59375" height="24"><div xmlns="http://www.w3.org/1999/xhtml" style="display: table-cell; white-space: nowrap; line-height: 1.5;"><span class="nodeLabel"><p>Bob SQL DW Standards</p></span></div></foreignObject></g></g></g><g class="edgePaths"><path d="M217.517,300L234.264,315.667C251.011,331.333,284.506,362.667,305.42,378.333C326.333,394,334.667,394,343,394C351.333,394,359.667,394,389.667,394C419.667,394,471.333,394,527.799,394C584.266,394,645.531,394,708.184,394C770.836,394,834.875,394,906.68,394C978.484,394,1058.055,394,1125.417,416.743C1192.779,439.485,1247.934,484.97,1275.511,507.713L1303.088,530.455" id="my-svg-L_SCH_WRK_0" class="edge-thickness-normal edge-pattern-solid edge-thickness-normal edge-pattern-solid flowchart-link" style=";" data-edge="true" data-et="edge" data-id="L_SCH_WRK_0" data-points="W3sieCI6MjE3LjUxNzI0MTM3OTMxMDM1LCJ5IjozMDB9LHsieCI6MzE4LCJ5IjozOTR9LHsieCI6MzQzLCJ5IjozOTR9LHsieCI6MzY4LCJ5IjozOTR9LHsieCI6NTIzLCJ5IjozOTR9LHsieCI6NzA2Ljc5Njg3NSwieSI6Mzk0fSx7IngiOjg5OC45MTQwNjI1LCJ5IjozOTR9LHsieCI6MTEzNy42MjUsInkiOjM5NH0seyJ4IjoxMzA2LjE3MzkzMDkyMTA1MjcsInkiOjUzM31d" data-look="classic" marker-end="url(#my-svg_flowchart-v2-pointEnd)"/><path d="M293,220.484L297.167,219.57C301.333,218.656,309.667,216.828,318,215.914C326.333,215,334.667,215,343,215C351.333,215,359.667,215,389.667,215C419.667,215,471.333,215,527.799,215C584.266,215,645.531,215,708.184,215C770.836,215,834.875,215,906.68,215C978.484,215,1058.055,215,1136.238,215C1214.422,215,1291.219,215,1366.031,215C1440.844,215,1513.672,215,1576.327,238.06C1638.982,261.12,1691.463,307.24,1717.704,330.3L1743.945,353.36" id="my-svg-L_SCH_ENH_0" class="edge-thickness-normal edge-pattern-solid edge-thickness-normal edge-pattern-solid flowchart-link" style=";" data-edge="true" data-et="edge" data-id="L_SCH_ENH_0" data-points="W3sieCI6MjkzLCJ5IjoyMjAuNDgzODcwOTY3NzQxOTV9LHsieCI6MzE4LCJ5IjoyMTV9LHsieCI6MzQzLCJ5IjoyMTV9LHsieCI6MzY4LCJ5IjoyMTV9LHsieCI6NTIzLCJ5IjoyMTV9LHsieCI6NzA2Ljc5Njg3NSwieSI6MjE1fSx7IngiOjg5OC45MTQwNjI1LCJ5IjoyMTV9LHsieCI6MTEzNy42MjUsInkiOjIxNX0seyJ4IjoxMzY4LjAxNTYyNSwieSI6MjE1fSx7IngiOjE1ODYuNSwieSI6MjE1fSx7IngiOjE3NDYuOTQ5NDYyODkwNjI1LCJ5IjozNTZ9XQ==" data-look="classic" marker-end="url(#my-svg_flowchart-v2-pointEnd)"/><path d="M207.41,198L225.842,176.833C244.273,155.667,281.137,113.333,303.735,92.167C326.333,71,334.667,71,343,71C351.333,71,359.667,71,389.667,71C419.667,71,471.333,71,527.799,71C584.266,71,645.531,71,708.184,71C770.836,71,834.875,71,906.68,71C978.484,71,1058.055,71,1136.238,71C1214.422,71,1291.219,71,1366.031,71C1440.844,71,1513.672,71,1586.5,71C1659.328,71,1732.156,71,1794.404,71C1856.651,71,1908.318,71,1952.777,94.312C1997.236,117.625,2034.488,164.25,2053.114,187.562L2071.74,210.875" id="my-svg-L_SCH_GWD_0" class="edge-thickness-normal edge-pattern-solid edge-thickness-normal edge-pattern-solid flowchart-link" style=";" data-edge="true" data-et="edge" data-id="L_SCH_GWD_0" data-points="W3sieCI6MjA3LjQxMDExMjM1OTU1MDU3LCJ5IjoxOTh9LHsieCI6MzE4LCJ5Ijo3MX0seyJ4IjozNDMsInkiOjcxfSx7IngiOjM2OCwieSI6NzF9LHsieCI6NTIzLCJ5Ijo3MX0seyJ4Ijo3MDYuNzk2ODc1LCJ5Ijo3MX0seyJ4Ijo4OTguOTE0MDYyNSwieSI6NzF9LHsieCI6MTEzNy42MjUsInkiOjcxfSx7IngiOjEzNjguMDE1NjI1LCJ5Ijo3MX0seyJ4IjoxNTg2LjUsInkiOjcxfSx7IngiOjE4MDQuOTg0Mzc1LCJ5Ijo3MX0seyJ4IjoxOTU5Ljk4NDM3NSwieSI6NzF9LHsieCI6MjA3NC4yMzY5NTIzMTk1ODc1LCJ5IjoyMTR9XQ==" data-look="classic" marker-end="url(#my-svg_flowchart-v2-pointEnd)"/><path d="M233.58,452L247.65,462.167C261.72,472.333,289.86,492.667,308.097,502.833C326.333,513,334.667,513,343,513C351.333,513,359.667,513,389.667,513C419.667,513,471.333,513,527.799,513C584.266,513,645.531,513,684.466,513.691C723.4,514.383,740.004,515.766,748.306,516.457L756.608,517.148" id="my-svg-L_NAM_BRZ_0" class="edge-thickness-normal edge-pattern-solid edge-thickness-normal edge-pattern-solid flowchart-link" style=";" data-edge="true" data-et="edge" data-id="L_NAM_BRZ_0" data-points="W3sieCI6MjMzLjU4MDM1NzE0Mjg1NzE0LCJ5Ijo0NTJ9LHsieCI6MzE4LCJ5Ijo1MTN9LHsieCI6MzQzLCJ5Ijo1MTN9LHsieCI6MzY4LCJ5Ijo1MTN9LHsieCI6NTIzLCJ5Ijo1MTN9LHsieCI6NzA2Ljc5Njg3NSwieSI6NTEzfSx7IngiOjc2MC41OTM3NSwieSI6NTE3LjQ4MDMzODMzNTE2MzN9XQ==" data-look="classic" marker-end="url(#my-svg_flowchart-v2-pointEnd)"/><path d="M242.05,350L254.708,341.833C267.367,333.667,292.683,317.333,309.508,309.167C326.333,301,334.667,301,343,301C351.333,301,359.667,301,389.667,301C419.667,301,471.333,301,527.799,301C584.266,301,645.531,301,708.184,301C770.836,301,834.875,301,906.68,301C978.484,301,1058.055,301,1136.238,301C1214.422,301,1291.219,301,1366.031,301C1440.844,301,1513.672,301,1568.38,309.876C1623.089,318.751,1659.677,336.503,1677.971,345.378L1696.266,354.254" id="my-svg-L_NAM_ENH_0" class="edge-thickness-normal edge-pattern-solid edge-thickness-normal edge-pattern-solid flowchart-link" style=";" data-edge="true" data-et="edge" data-id="L_NAM_ENH_0" data-points="W3sieCI6MjQyLjA1LCJ5IjozNTB9LHsieCI6MzE4LCJ5IjozMDF9LHsieCI6MzQzLCJ5IjozMDF9LHsieCI6MzY4LCJ5IjozMDF9LHsieCI6NTIzLCJ5IjozMDF9LHsieCI6NzA2Ljc5Njg3NSwieSI6MzAxfSx7IngiOjg5OC45MTQwNjI1LCJ5IjozMDF9LHsieCI6MTEzNy42MjUsInkiOjMwMX0seyJ4IjoxMzY4LjAxNTYyNSwieSI6MzAxfSx7IngiOjE1ODYuNSwieSI6MzAxfSx7IngiOjE2OTkuODY0NTM0MTk4MTEzMiwieSI6MzU2fV0=" data-look="classic" marker-end="url(#my-svg_flowchart-v2-pointEnd)"/><path d="M188.5,350L210.083,306.833C231.667,263.667,274.833,177.333,300.583,134.167C326.333,91,334.667,91,343,91C351.333,91,359.667,91,389.667,91C419.667,91,471.333,91,527.799,91C584.266,91,645.531,91,708.184,91C770.836,91,834.875,91,906.68,91C978.484,91,1058.055,91,1136.238,91C1214.422,91,1291.219,91,1366.031,91C1440.844,91,1513.672,91,1586.5,91C1659.328,91,1732.156,91,1794.404,91C1856.651,91,1908.318,91,1951.969,111.002C1995.62,131.004,2031.257,171.009,2049.075,191.011L2066.893,211.013" id="my-svg-L_NAM_GWD_0" class="edge-thickness-normal edge-pattern-solid edge-thickness-normal edge-pattern-solid flowchart-link" style=";" data-edge="true" data-et="edge" data-id="L_NAM_GWD_0" data-points="W3sieCI6MTg4LjUsInkiOjM1MH0seyJ4IjozMTgsInkiOjkxfSx7IngiOjM0MywieSI6OTF9LHsieCI6MzY4LCJ5Ijo5MX0seyJ4Ijo1MjMsInkiOjkxfSx7IngiOjcwNi43OTY4NzUsInkiOjkxfSx7IngiOjg5OC45MTQwNjI1LCJ5Ijo5MX0seyJ4IjoxMTM3LjYyNSwieSI6OTF9LHsieCI6MTM2OC4wMTU2MjUsInkiOjkxfSx7IngiOjE1ODYuNSwieSI6OTF9LHsieCI6MTgwNC45ODQzNzUsInkiOjkxfSx7IngiOjE5NTkuOTg0Mzc1LCJ5Ijo5MX0seyJ4IjoyMDY5LjU1MzM0MDUxNzI0MTQsInkiOjIxNH1d" data-look="classic" marker-end="url(#my-svg_flowchart-v2-pointEnd)"/><path d="M287.719,778L292.766,778C297.813,778,307.906,778,317.12,778C326.333,778,334.667,778,343,778C351.333,778,359.667,778,381.073,796.018C402.479,814.037,436.959,850.073,454.199,868.092L471.438,886.11" id="my-svg-L_TD_META_0" class="edge-thickness-normal edge-pattern-solid edge-thickness-normal edge-pattern-solid flowchart-link" style=";" data-edge="true" data-et="edge" data-id="L_TD_META_0" data-points="W3sieCI6Mjg3LjcxODc1LCJ5Ijo3Nzh9LHsieCI6MzE4LCJ5Ijo3Nzh9LHsieCI6MzQzLCJ5Ijo3Nzh9LHsieCI6MzY4LCJ5Ijo3Nzh9LHsieCI6NDc0LjIwMzcwMzcwMzcwMzcsInkiOjg4OX1d" data-look="classic" marker-end="url(#my-svg_flowchart-v2-pointEnd)"/><path d="M292.172,906L296.477,906C300.781,906,309.391,906,317.862,906C326.333,906,334.667,906,343,906C351.333,906,359.667,906,367.349,906.771C375.031,907.542,382.062,909.085,385.577,909.856L389.093,910.627" id="my-svg-L_SEC_META_0" class="edge-thickness-normal edge-pattern-solid edge-thickness-normal edge-pattern-solid flowchart-link" style=";" data-edge="true" data-et="edge" data-id="L_SEC_META_0" data-points="W3sieCI6MjkyLjE3MTg3NSwieSI6OTA2fSx7IngiOjMxOCwieSI6OTA2fSx7IngiOjM0MywieSI6OTA2fSx7IngiOjM2OCwieSI6OTA2fSx7IngiOjM5MywieSI6OTExLjQ4Mzg3MDk2Nzc0Mn1d" data-look="classic" marker-end="url(#my-svg_flowchart-v2-pointEnd)"/><path d="M291.375,1034L295.813,1034C300.25,1034,309.125,1034,317.729,1034C326.333,1034,334.667,1034,343,1034C351.333,1034,359.667,1034,375.081,1027.179C390.495,1020.358,412.989,1006.716,424.237,999.895L435.484,993.074" id="my-svg-L_GOV_META_0" class="edge-thickness-normal edge-pattern-solid edge-thickness-normal edge-pattern-solid flowchart-link" style=";" data-edge="true" data-et="edge" data-id="L_GOV_META_0" data-points="W3sieCI6MjkxLjM3NSwieSI6MTAzNH0seyJ4IjozMTgsInkiOjEwMzR9LHsieCI6MzQzLCJ5IjoxMDM0fSx7IngiOjM2OCwieSI6MTAzNH0seyJ4Ijo0MzguOTA0MjU1MzE5MTQ4OTQsInkiOjk5MX1d" data-look="classic" marker-end="url(#my-svg_flowchart-v2-pointEnd)"/><path d="M293,1174L297.167,1174C301.333,1174,309.667,1174,318,1174C326.333,1174,334.667,1174,343,1174C351.333,1174,359.667,1174,383.668,1144.056C407.67,1114.112,447.339,1054.223,467.174,1024.279L487.009,994.335" id="my-svg-L_PERF_META_0" class="edge-thickness-normal edge-pattern-solid edge-thickness-normal edge-pattern-solid flowchart-link" style=";" data-edge="true" data-et="edge" data-id="L_PERF_META_0" data-points="W3sieCI6MjkzLCJ5IjoxMTc0fSx7IngiOjMxOCwieSI6MTE3NH0seyJ4IjozNDMsInkiOjExNzR9LHsieCI6MzY4LCJ5IjoxMTc0fSx7IngiOjQ4OS4yMTc5NDg3MTc5NDg3MywieSI6OTkxfV0=" data-look="classic" marker-end="url(#my-svg_flowchart-v2-pointEnd)"/><path d="M281.352,638L287.46,638C293.568,638,305.784,638,316.059,638C326.333,638,334.667,638,343,638C351.333,638,359.667,638,367.333,638C375,638,382,638,385.5,638L389,638" id="my-svg-L_EDWSTD_EDW_0" class="edge-thickness-normal edge-pattern-solid edge-thickness-normal edge-pattern-solid flowchart-link" style=";" data-edge="true" data-et="edge" data-id="L_EDWSTD_EDW_0" data-points="W3sieCI6MjgxLjM1MTU2MjUsInkiOjYzOH0seyJ4IjozMTgsInkiOjYzOH0seyJ4IjozNDMsInkiOjYzOH0seyJ4IjozNjgsInkiOjYzOH0seyJ4IjozOTMsInkiOjYzOH1d" data-look="classic" marker-end="url(#my-svg_flowchart-v2-pointEnd)"/><path d="M653,653.561L661.966,654.634C670.932,655.707,688.865,657.854,729.85,658.927C770.836,660,834.875,660,906.68,660C978.484,660,1058.055,660,1113.939,654.689C1169.822,649.379,1202.02,638.758,1218.118,633.447L1234.217,628.137" id="my-svg-L_EDW_WRK_0" class="edge-thickness-normal edge-pattern-solid edge-thickness-normal edge-pattern-solid flowchart-link" style=";" data-edge="true" data-et="edge" data-id="L_EDW_WRK_0" data-points="W3sieCI6NjUzLCJ5Ijo2NTMuNTYwNjU2Mjk1MTYyN30seyJ4Ijo3MDYuNzk2ODc1LCJ5Ijo2NjB9LHsieCI6ODk4LjkxNDA2MjUsInkiOjY2MH0seyJ4IjoxMTM3LjYyNSwieSI6NjYwfSx7IngiOjEyMzguMDE1NjI1LCJ5Ijo2MjYuODgzNjg5Mzg2MjMyNn1d" data-look="classic" marker-end="url(#my-svg_flowchart-v2-pointEnd)"/><path d="M293,118.806L297.167,119.505C301.333,120.204,309.667,121.602,318,122.301C326.333,123,334.667,123,343,123C351.333,123,359.667,123,389.667,123C419.667,123,471.333,123,527.799,123C584.266,123,645.531,123,708.184,123C770.836,123,834.875,123,906.68,123C978.484,123,1058.055,123,1136.238,123C1214.422,123,1291.219,123,1366.031,123C1440.844,123,1513.672,123,1586.5,123C1659.328,123,1732.156,123,1794.404,123C1856.651,123,1908.318,123,1950.215,137.716C1992.112,152.433,2024.239,181.865,2040.302,196.582L2056.366,211.298" id="my-svg-L_BI_GWD_0" class="edge-thickness-normal edge-pattern-solid edge-thickness-normal edge-pattern-solid flowchart-link" style=";" data-edge="true" data-et="edge" data-id="L_BI_GWD_0" data-points="W3sieCI6MjkzLCJ5IjoxMTguODA2NDUxNjEyOTAzMjN9LHsieCI6MzE4LCJ5IjoxMjN9LHsieCI6MzQzLCJ5IjoxMjN9LHsieCI6MzY4LCJ5IjoxMjN9LHsieCI6NTIzLCJ5IjoxMjN9LHsieCI6NzA2Ljc5Njg3NSwieSI6MTIzfSx7IngiOjg5OC45MTQwNjI1LCJ5IjoxMjN9LHsieCI6MTEzNy42MjUsInkiOjEyM30seyJ4IjoxMzY4LjAxNTYyNSwieSI6MTIzfSx7IngiOjE1ODYuNSwieSI6MTIzfSx7IngiOjE4MDQuOTg0Mzc1LCJ5IjoxMjN9LHsieCI6MTk1OS45ODQzNzUsInkiOjEyM30seyJ4IjoyMDU5LjMxNTM2MDkxNTQ5MywieSI6MjE0fV0=" data-look="classic" marker-end="url(#my-svg_flowchart-v2-pointEnd)"/><path d="M2244.984,265L2265.199,265C2285.414,265,2325.844,265,2382.23,328.92C2438.617,392.84,2510.96,520.679,2547.132,584.599L2583.304,648.519" id="my-svg-L_GWD_SEM_0" class="edge-thickness-normal edge-pattern-solid edge-thickness-normal edge-pattern-solid flowchart-link" style=";" data-edge="true" data-et="edge" data-id="L_GWD_SEM_0" data-points="W3sieCI6MjI0NC45ODQzNzUsInkiOjI2NX0seyJ4IjoyMzY2LjI3MzQzNzUsInkiOjI2NX0seyJ4IjoyNTg1LjI3MzkzMjY1ODQ1MDYsInkiOjY1Mn1d" data-look="classic" marker-end="url(#my-svg_flowchart-v2-pointEnd)"/><path d="M961.346,478L990.726,454C1020.106,430,1078.865,382,1146.644,358C1214.422,334,1291.219,334,1366.031,334C1440.844,334,1513.672,334,1564.201,338.716C1614.73,343.432,1642.96,352.865,1657.075,357.581L1671.191,362.297" id="my-svg-L_BRZ_ENH_0" class="edge-thickness-normal edge-pattern-solid edge-thickness-normal edge-pattern-solid flowchart-link" style=";" data-edge="true" data-et="edge" data-id="L_BRZ_ENH_0" data-points="W3sieCI6OTYxLjM0NjE1Mzg0NjE1MzgsInkiOjQ3OH0seyJ4IjoxMTM3LjYyNSwieSI6MzM0fSx7IngiOjEzNjguMDE1NjI1LCJ5IjozMzR9LHsieCI6MTU4Ni41LCJ5IjozMzR9LHsieCI6MTY3NC45ODQzNzUsInkiOjM2My41NjQzOTk2MjgxMTk5fV0=" data-look="classic" marker-end="url(#my-svg_flowchart-v2-pointEnd)"/><path d="M960.712,580L990.198,604.333C1019.683,628.667,1078.654,677.333,1132.179,686.85C1185.705,696.366,1233.785,666.733,1257.825,651.916L1281.865,637.099" id="my-svg-L_BRZ_WRK_0" class="edge-thickness-normal edge-pattern-solid edge-thickness-normal edge-pattern-solid flowchart-link" style=";" data-edge="true" data-et="edge" data-id="L_BRZ_WRK_0" data-points="W3sieCI6OTYwLjcxMjMyNTUwNzYxNDIsInkiOjU4MH0seyJ4IjoxMTM3LjYyNSwieSI6NzI2fSx7IngiOjEyODUuMjY5Njk2MzAyODE3LCJ5Ijo2MzV9XQ==" data-look="classic" marker-end="url(#my-svg_flowchart-v2-pointEnd)"/><path d="M1498.016,584L1512.763,584C1527.51,584,1557.005,584,1597.156,563.42C1637.308,542.839,1688.115,501.679,1713.519,481.098L1738.923,460.518" id="my-svg-L_WRK_ENH_0" class="edge-thickness-normal edge-pattern-solid edge-thickness-normal edge-pattern-solid flowchart-link" style=";" data-edge="true" data-et="edge" data-id="L_WRK_ENH_0" data-points="W3sieCI6MTQ5OC4wMTU2MjUsInkiOjU4NH0seyJ4IjoxNTg2LjUsInkiOjU4NH0seyJ4IjoxNzQyLjAzMTI1LCJ5Ijo0NTh9XQ==" data-look="classic" marker-end="url(#my-svg_flowchart-v2-pointEnd)"/><path d="M1934.984,407L1939.151,407C1943.318,407,1951.651,407,1971.881,392.284C1992.112,377.567,2024.239,348.135,2040.302,333.418L2056.366,318.702" id="my-svg-L_ENH_GWD_0" class="edge-thickness-normal edge-pattern-solid edge-thickness-normal edge-pattern-solid flowchart-link" style=";" data-edge="true" data-et="edge" data-id="L_ENH_GWD_0" data-points="W3sieCI6MTkzNC45ODQzNzUsInkiOjQwN30seyJ4IjoxOTU5Ljk4NDM3NSwieSI6NDA3fSx7IngiOjIwNTkuMzE1MzYwOTE1NDkzLCJ5IjozMTZ9XQ==" data-look="classic" marker-end="url(#my-svg_flowchart-v2-pointEnd)"/><path d="M549.33,889L575.575,838.167C601.819,787.333,654.308,685.667,688.878,632.45C723.447,579.233,740.098,574.466,748.423,572.083L756.748,569.7" id="my-svg-L_META_BRZ_0" class="edge-thickness-normal edge-pattern-dotted edge-thickness-normal edge-pattern-solid flowchart-link" style=";" data-edge="true" data-et="edge" data-id="L_META_BRZ_0" data-points="W3sieCI6NTQ5LjMzMDQ1MTE5MzgyMDIsInkiOjg4OX0seyJ4Ijo3MDYuNzk2ODc1LCJ5Ijo1ODR9LHsieCI6NzYwLjU5Mzc1LCJ5Ijo1NjguNTk4ODM2OTcyODc2M31d" data-look="classic" marker-end="url(#my-svg_flowchart-v2-pointEnd)"/><path d="M574.504,889L596.552,867.167C618.601,845.333,662.699,801.667,716.768,779.833C770.836,758,834.875,758,906.68,758C978.484,758,1058.055,758,1124.452,737.902C1190.848,717.804,1244.072,677.607,1270.684,657.509L1297.295,637.411" id="my-svg-L_META_WRK_0" class="edge-thickness-normal edge-pattern-dotted edge-thickness-normal edge-pattern-solid flowchart-link" style=";" data-edge="true" data-et="edge" data-id="L_META_WRK_0" data-points="W3sieCI6NTc0LjUwMzUxOTkxNzU4MjQsInkiOjg4OX0seyJ4Ijo3MDYuNzk2ODc1LCJ5Ijo3NTh9LHsieCI6ODk4LjkxNDA2MjUsInkiOjc1OH0seyJ4IjoxMTM3LjYyNSwieSI6NzU4fSx7IngiOjEzMDAuNDg3MzM4MzYyMDY5LCJ5Ijo2MzV9XQ==" data-look="classic" marker-end="url(#my-svg_flowchart-v2-pointEnd)"/><path d="M653,925.854L661.966,924.878C670.932,923.903,688.865,921.951,729.85,920.976C770.836,920,834.875,920,906.68,920C978.484,920,1058.055,920,1136.238,920C1214.422,920,1291.219,920,1366.031,920C1440.844,920,1513.672,920,1582.619,843.613C1651.565,767.227,1716.631,614.453,1749.164,538.067L1781.696,461.68" id="my-svg-L_META_ENH_0" class="edge-thickness-normal edge-pattern-dotted edge-thickness-normal edge-pattern-solid flowchart-link" style=";" data-edge="true" data-et="edge" data-id="L_META_ENH_0" data-points="W3sieCI6NjUzLCJ5Ijo5MjUuODUzOTQ4ODIyNTc5Mn0seyJ4Ijo3MDYuNzk2ODc1LCJ5Ijo5MjB9LHsieCI6ODk4LjkxNDA2MjUsInkiOjkyMH0seyJ4IjoxMTM3LjYyNSwieSI6OTIwfSx7IngiOjEzNjguMDE1NjI1LCJ5Ijo5MjB9LHsieCI6MTU4Ni41LCJ5Ijo5MjB9LHsieCI6MTc4My4yNjM3MDYxNDAzNTEsInkiOjQ1OH1d" data-look="classic" marker-end="url(#my-svg_flowchart-v2-pointEnd)"/><path d="M579.81,991L600.974,1010C622.139,1029,664.468,1067,717.652,1086C770.836,1105,834.875,1105,906.68,1105C978.484,1105,1058.055,1105,1136.238,1105C1214.422,1105,1291.219,1105,1366.031,1105C1440.844,1105,1513.672,1105,1586.5,1105C1659.328,1105,1732.156,1105,1794.404,1105C1856.651,1105,1908.318,1105,1958.295,974.156C2008.272,843.311,2056.56,581.622,2080.704,450.778L2104.848,319.934" id="my-svg-L_META_GWD_0" class="edge-thickness-normal edge-pattern-dotted edge-thickness-normal edge-pattern-solid flowchart-link" style=";" data-edge="true" data-et="edge" data-id="L_META_GWD_0" data-points="W3sieCI6NTc5LjgwOTk0MzE4MTgxODIsInkiOjk5MX0seyJ4Ijo3MDYuNzk2ODc1LCJ5IjoxMTA1fSx7IngiOjg5OC45MTQwNjI1LCJ5IjoxMTA1fSx7IngiOjExMzcuNjI1LCJ5IjoxMTA1fSx7IngiOjEzNjguMDE1NjI1LCJ5IjoxMTA1fSx7IngiOjE1ODYuNSwieSI6MTEwNX0seyJ4IjoxODA0Ljk4NDM3NSwieSI6MTEwNX0seyJ4IjoxOTU5Ljk4NDM3NSwieSI6MTEwNX0seyJ4IjoyMTA1LjU3MzY2MDcxNDI4NiwieSI6MzE2fV0=" data-look="classic" marker-end="url(#my-svg_flowchart-v2-pointEnd)"/><path d="M564.847,991L588.505,1019.833C612.163,1048.667,659.48,1106.333,715.158,1135.167C770.836,1164,834.875,1164,906.68,1164C978.484,1164,1058.055,1164,1136.238,1164C1214.422,1164,1291.219,1164,1366.031,1164C1440.844,1164,1513.672,1164,1586.5,1164C1659.328,1164,1732.156,1164,1794.404,1164C1856.651,1164,1908.318,1164,1959.984,1164C2011.651,1164,2063.318,1164,2131.033,1164C2198.747,1164,2282.51,1164,2360.955,1092.261C2439.399,1020.521,2512.525,877.043,2549.088,805.303L2585.651,733.564" id="my-svg-L_META_SEM_0" class="edge-thickness-normal edge-pattern-dotted edge-thickness-normal edge-pattern-solid flowchart-link" style=";" data-edge="true" data-et="edge" data-id="L_META_SEM_0" data-points="W3sieCI6NTY0Ljg0NjYwOTkzMzAzNTcsInkiOjk5MX0seyJ4Ijo3MDYuNzk2ODc1LCJ5IjoxMTY0fSx7IngiOjg5OC45MTQwNjI1LCJ5IjoxMTY0fSx7IngiOjExMzcuNjI1LCJ5IjoxMTY0fSx7IngiOjEzNjguMDE1NjI1LCJ5IjoxMTY0fSx7IngiOjE1ODYuNSwieSI6MTE2NH0seyJ4IjoxODA0Ljk4NDM3NSwieSI6MTE2NH0seyJ4IjoxOTU5Ljk4NDM3NSwieSI6MTE2NH0seyJ4IjoyMTE0Ljk4NDM3NSwieSI6MTE2NH0seyJ4IjoyMzY2LjI3MzQzNzUsInkiOjExNjR9LHsieCI6MjU4Ny40NjY5MTY2MjI2MjE3LCJ5Ijo3MzB9XQ==" data-look="classic" marker-end="url(#my-svg_flowchart-v2-pointEnd)"/></g><g class="edgeLabels"><g class="edgeLabel"><g class="label" data-id="L_SCH_WRK_0" transform="translate(0, 0)"><foreignObject width="0" height="0"><div xmlns="http://www.w3.org/1999/xhtml" class="labelBkg" style="display: table-cell; white-space: nowrap; line-height: 1.5; max-width: 200px; text-align: center;"><span class="edgeLabel"></span></div></foreignObject></g></g><g class="edgeLabel"><g class="label" data-id="L_SCH_ENH_0" transform="translate(0, 0)"><foreignObject width="0" height="0"><div xmlns="http://www.w3.org/1999/xhtml" class="labelBkg" style="display: table-cell; white-space: nowrap; line-height: 1.5; max-width: 200px; text-align: center;"><span class="edgeLabel"></span></div></foreignObject></g></g><g class="edgeLabel"><g class="label" data-id="L_SCH_GWD_0" transform="translate(0, 0)"><foreignObject width="0" height="0"><div xmlns="http://www.w3.org/1999/xhtml" class="labelBkg" style="display: table-cell; white-space: nowrap; line-height: 1.5; max-width: 200px; text-align: center;"><span class="edgeLabel"></span></div></foreignObject></g></g><g class="edgeLabel"><g class="label" data-id="L_NAM_BRZ_0" transform="translate(0, 0)"><foreignObject width="0" height="0"><div xmlns="http://www.w3.org/1999/xhtml" class="labelBkg" style="display: table-cell; white-space: nowrap; line-height: 1.5; max-width: 200px; text-align: center;"><span class="edgeLabel"></span></div></foreignObject></g></g><g class="edgeLabel"><g class="label" data-id="L_NAM_ENH_0" transform="translate(0, 0)"><foreignObject width="0" height="0"><div xmlns="http://www.w3.org/1999/xhtml" class="labelBkg" style="display: table-cell; white-space: nowrap; line-height: 1.5; max-width: 200px; text-align: center;"><span class="edgeLabel"></span></div></foreignObject></g></g><g class="edgeLabel"><g class="label" data-id="L_NAM_GWD_0" transform="translate(0, 0)"><foreignObject width="0" height="0"><div xmlns="http://www.w3.org/1999/xhtml" class="labelBkg" style="display: table-cell; white-space: nowrap; line-height: 1.5; max-width: 200px; text-align: center;"><span class="edgeLabel"></span></div></foreignObject></g></g><g class="edgeLabel"><g class="label" data-id="L_TD_META_0" transform="translate(0, 0)"><foreignObject width="0" height="0"><div xmlns="http://www.w3.org/1999/xhtml" class="labelBkg" style="display: table-cell; white-space: nowrap; line-height: 1.5; max-width: 200px; text-align: center;"><span class="edgeLabel"></span></div></foreignObject></g></g><g class="edgeLabel"><g class="label" data-id="L_SEC_META_0" transform="translate(0, 0)"><foreignObject width="0" height="0"><div xmlns="http://www.w3.org/1999/xhtml" class="labelBkg" style="display: table-cell; white-space: nowrap; line-height: 1.5; max-width: 200px; text-align: center;"><span class="edgeLabel"></span></div></foreignObject></g></g><g class="edgeLabel"><g class="label" data-id="L_GOV_META_0" transform="translate(0, 0)"><foreignObject width="0" height="0"><div xmlns="http://www.w3.org/1999/xhtml" class="labelBkg" style="display: table-cell; white-space: nowrap; line-height: 1.5; max-width: 200px; text-align: center;"><span class="edgeLabel"></span></div></foreignObject></g></g><g class="edgeLabel"><g class="label" data-id="L_PERF_META_0" transform="translate(0, 0)"><foreignObject width="0" height="0"><div xmlns="http://www.w3.org/1999/xhtml" class="labelBkg" style="display: table-cell; white-space: nowrap; line-height: 1.5; max-width: 200px; text-align: center;"><span class="edgeLabel"></span></div></foreignObject></g></g><g class="edgeLabel"><g class="label" data-id="L_EDWSTD_EDW_0" transform="translate(0, 0)"><foreignObject width="0" height="0"><div xmlns="http://www.w3.org/1999/xhtml" class="labelBkg" style="display: table-cell; white-space: nowrap; line-height: 1.5; max-width: 200px; text-align: center;"><span class="edgeLabel"></span></div></foreignObject></g></g><g class="edgeLabel"><g class="label" data-id="L_EDW_WRK_0" transform="translate(0, 0)"><foreignObject width="0" height="0"><div xmlns="http://www.w3.org/1999/xhtml" class="labelBkg" style="display: table-cell; white-space: nowrap; line-height: 1.5; max-width: 200px; text-align: center;"><span class="edgeLabel"></span></div></foreignObject></g></g><g class="edgeLabel" transform="translate(1137.625, 123)"><g class="label" data-id="L_BI_GWD_0" transform="translate(-75.390625, -12)"><foreignObject width="150.78125" height="24"><div xmlns="http://www.w3.org/1999/xhtml" class="labelBkg" style="display: table-cell; white-space: nowrap; line-height: 1.5; max-width: 200px; text-align: center;"><span class="edgeLabel"><p>do not apply literally</p></span></div></foreignObject></g></g><g class="edgeLabel" transform="translate(2366.2734375, 265)"><g class="label" data-id="L_GWD_SEM_0" transform="translate(-96.2890625, -12)"><foreignObject width="192.578125" height="24"><div xmlns="http://www.w3.org/1999/xhtml" class="labelBkg" style="display: table-cell; white-space: nowrap; line-height: 1.5; max-width: 200px; text-align: center;"><span class="edgeLabel"><p>Direct Lake physical tables</p></span></div></foreignObject></g></g><g class="edgeLabel" transform="translate(1368.015625, 334)"><g class="label" data-id="L_BRZ_ENH_0" transform="translate(-60.453125, -12)"><foreignObject width="120.90625" height="24"><div xmlns="http://www.w3.org/1999/xhtml" class="labelBkg" style="display: table-cell; white-space: nowrap; line-height: 1.5; max-width: 200px; text-align: center;"><span class="edgeLabel"><p>direct by default</p></span></div></foreignObject></g></g><g class="edgeLabel" transform="translate(1116.05178, 708.19636)"><g class="label" data-id="L_BRZ_WRK_0" transform="translate(-67.484375, -12)"><foreignObject width="134.96875" height="24"><div xmlns="http://www.w3.org/1999/xhtml" class="labelBkg" style="display: table-cell; white-space: nowrap; line-height: 1.5; max-width: 200px; text-align: center;"><span class="edgeLabel"><p>stage by exception</p></span></div></foreignObject></g></g><g class="edgeLabel"><g class="label" data-id="L_WRK_ENH_0" transform="translate(0, 0)"><foreignObject width="0" height="0"><div xmlns="http://www.w3.org/1999/xhtml" class="labelBkg" style="display: table-cell; white-space: nowrap; line-height: 1.5; max-width: 200px; text-align: center;"><span class="edgeLabel"></span></div></foreignObject></g></g><g class="edgeLabel"><g class="label" data-id="L_ENH_GWD_0" transform="translate(0, 0)"><foreignObject width="0" height="0"><div xmlns="http://www.w3.org/1999/xhtml" class="labelBkg" style="display: table-cell; white-space: nowrap; line-height: 1.5; max-width: 200px; text-align: center;"><span class="edgeLabel"></span></div></foreignObject></g></g><g class="edgeLabel" transform="translate(640.89907, 711.63884)"><g class="label" data-id="L_META_BRZ_0" transform="translate(-28.796875, -12)"><foreignObject width="57.59375" height="24"><div xmlns="http://www.w3.org/1999/xhtml" class="labelBkg" style="display: table-cell; white-space: nowrap; line-height: 1.5; max-width: 200px; text-align: center;"><span class="edgeLabel"><p>controls</p></span></div></foreignObject></g></g><g class="edgeLabel" transform="translate(898.9140625, 758)"><g class="label" data-id="L_META_WRK_0" transform="translate(-28.796875, -12)"><foreignObject width="57.59375" height="24"><div xmlns="http://www.w3.org/1999/xhtml" class="labelBkg" style="display: table-cell; white-space: nowrap; line-height: 1.5; max-width: 200px; text-align: center;"><span class="edgeLabel"><p>controls</p></span></div></foreignObject></g></g><g class="edgeLabel" transform="translate(1137.625, 920)"><g class="label" data-id="L_META_ENH_0" transform="translate(-28.796875, -12)"><foreignObject width="57.59375" height="24"><div xmlns="http://www.w3.org/1999/xhtml" class="labelBkg" style="display: table-cell; white-space: nowrap; line-height: 1.5; max-width: 200px; text-align: center;"><span class="edgeLabel"><p>controls</p></span></div></foreignObject></g></g><g class="edgeLabel" transform="translate(1368.015625, 1105)"><g class="label" data-id="L_META_GWD_0" transform="translate(-28.796875, -12)"><foreignObject width="57.59375" height="24"><div xmlns="http://www.w3.org/1999/xhtml" class="labelBkg" style="display: table-cell; white-space: nowrap; line-height: 1.5; max-width: 200px; text-align: center;"><span class="edgeLabel"><p>controls</p></span></div></foreignObject></g></g><g class="edgeLabel" transform="translate(1586.5, 1164)"><g class="label" data-id="L_META_SEM_0" transform="translate(-63.484375, -12)"><foreignObject width="126.96875" height="24"><div xmlns="http://www.w3.org/1999/xhtml" class="labelBkg" style="display: table-cell; white-space: nowrap; line-height: 1.5; max-width: 200px; text-align: center;"><span class="edgeLabel"><p>refresh + validate</p></span></div></foreignObject></g></g></g><g class="nodes"><g class="node default standard" id="my-svg-flowchart-SCH-0" data-look="classic" transform="translate(163, 249)"><rect class="basic label-container" style="fill:#E8EEF7 !important;stroke:#50627A !important" x="-130" y="-51" width="260" height="102"/><g class="label" style="color:#111111 !important" transform="translate(-100, -36)"><rect/><foreignObject width="200" height="72"><div style="color: rgb(17, 17, 17) !important; display: table; white-space: break-spaces; line-height: 1.5; max-width: 200px; text-align: center; width: 200px;" xmlns="http://www.w3.org/1999/xhtml"><span style="color:#111111 !important" class="nodeLabel"><p>Schema taxonomy<br />WRK / ENH / DW / Audit / Archive</p></span></div></foreignObject></g></g><g class="node default standard" id="my-svg-flowchart-NAM-1" data-look="classic" transform="translate(163, 401)"><rect class="basic label-container" style="fill:#E8EEF7 !important;stroke:#50627A !important" x="-125.3046875" y="-51" width="250.609375" height="102"/><g class="label" style="color:#111111 !important" transform="translate(-95.3046875, -36)"><rect/><foreignObject width="190.609375" height="72"><div style="color: rgb(17, 17, 17) !important; display: table-cell; white-space: nowrap; line-height: 1.5; max-width: 200px; text-align: center;" xmlns="http://www.w3.org/1999/xhtml"><span style="color:#111111 !important" class="nodeLabel"><p>Naming rules<br />PascalCase Silver and Gold<br />Bronze mimics source</p></span></div></foreignObject></g></g><g class="node default standard" id="my-svg-flowchart-TD-2" data-look="classic" transform="translate(163, 778)"><rect class="basic label-container" style="fill:#E8EEF7 !important;stroke:#50627A !important" x="-124.71875" y="-39" width="249.4375" height="78"/><g class="label" style="color:#111111 !important" transform="translate(-94.71875, -24)"><rect/><foreignObject width="189.4375" height="48"><div style="color: rgb(17, 17, 17) !important; display: table-cell; white-space: nowrap; line-height: 1.5; max-width: 200px; text-align: center;" xmlns="http://www.w3.org/1999/xhtml"><span style="color:#111111 !important" class="nodeLabel"><p>TableDictionary standard<br />metadata, PK, refresh SLA</p></span></div></foreignObject></g></g><g class="node default standard" id="my-svg-flowchart-SEC-3" data-look="classic" transform="translate(163, 906)"><rect class="basic label-container" style="fill:#E8EEF7 !important;stroke:#50627A !important" x="-129.171875" y="-39" width="258.34375" height="78"/><g class="label" style="color:#111111 !important" transform="translate(-99.171875, -24)"><rect/><foreignObject width="198.34375" height="48"><div style="color: rgb(17, 17, 17) !important; display: table-cell; white-space: nowrap; line-height: 1.5; max-width: 200px; text-align: center;" xmlns="http://www.w3.org/1999/xhtml"><span style="color:#111111 !important" class="nodeLabel"><p>Schema/security standard<br />least privilege and mapping</p></span></div></foreignObject></g></g><g class="node default standard" id="my-svg-flowchart-GOV-4" data-look="classic" transform="translate(163, 1034)"><rect class="basic label-container" style="fill:#E8EEF7 !important;stroke:#50627A !important" x="-128.375" y="-39" width="256.75" height="78"/><g class="label" style="color:#111111 !important" transform="translate(-98.375, -24)"><rect/><foreignObject width="196.75" height="48"><div style="color: rgb(17, 17, 17) !important; display: table-cell; white-space: nowrap; line-height: 1.5; max-width: 200px; text-align: center;" xmlns="http://www.w3.org/1999/xhtml"><span style="color:#111111 !important" class="nodeLabel"><p>Design approval<br />Rakesh / assigned approver</p></span></div></foreignObject></g></g><g class="node default standard" id="my-svg-flowchart-BI-5" data-look="classic" transform="translate(163, 97)"><rect class="basic label-container" style="fill:#E8EEF7 !important;stroke:#50627A !important" x="-130" y="-51" width="260" height="102"/><g class="label" style="color:#111111 !important" transform="translate(-100, -36)"><rect/><foreignObject width="200" height="72"><div style="color: rgb(17, 17, 17) !important; display: table; white-space: break-spaces; line-height: 1.5; max-width: 200px; text-align: center; width: 200px;" xmlns="http://www.w3.org/1999/xhtml"><span style="color:#111111 !important" class="nodeLabel"><p>Legacy BI view rule<br />adapt for Fabric Direct Lake</p></span></div></foreignObject></g></g><g class="node default standard" id="my-svg-flowchart-PERF-6" data-look="classic" transform="translate(163, 1174)"><rect class="basic label-container" style="fill:#E8EEF7 !important;stroke:#50627A !important" x="-130" y="-51" width="260" height="102"/><g class="label" style="color:#111111 !important" transform="translate(-100, -36)"><rect/><foreignObject width="200" height="72"><div style="color: rgb(17, 17, 17) !important; display: table; white-space: break-spaces; line-height: 1.5; max-width: 200px; text-align: center; width: 200px;" xmlns="http://www.w3.org/1999/xhtml"><span style="color:#111111 !important" class="nodeLabel"><p>Performance and quality<br />PK, stats intent, duplicate tests</p></span></div></foreignObject></g></g><g class="node default standard" id="my-svg-flowchart-EDWSTD-7" data-look="classic" transform="translate(163, 638)"><rect class="basic label-container" style="fill:#E8EEF7 !important;stroke:#50627A !important" x="-118.3515625" y="-51" width="236.703125" height="102"/><g class="label" style="color:#111111 !important" transform="translate(-88.3515625, -36)"><rect/><foreignObject width="176.703125" height="72"><div style="color: rgb(17, 17, 17) !important; display: table-cell; white-space: nowrap; line-height: 1.5; max-width: 200px; text-align: center;" xmlns="http://www.w3.org/1999/xhtml"><span style="color:#111111 !important" class="nodeLabel"><p>External/source fallback<br />object-level approval<br />ADR-002</p></span></div></foreignObject></g></g><g class="node default bronze" id="my-svg-flowchart-BRZ-8" data-look="classic" transform="translate(898.9140625, 529)"><rect class="basic label-container" style="fill:#B86B2B !important;stroke:#6B3A12 !important" x="-138.3203125" y="-51" width="276.640625" height="102"/><g class="label" style="color:#FFFFFF !important" transform="translate(-108.3203125, -36)"><rect/><foreignObject width="216.640625" height="72"><div style="color: rgb(255, 255, 255) !important; display: table; white-space: break-spaces; line-height: 1.5; max-width: 200px; text-align: center; width: 200px;" xmlns="http://www.w3.org/1999/xhtml"><span style="color:#FFFFFF !important" class="nodeLabel"><p>Logical Bronze<br />Enterprise_Access_Lakehouse shortcuts</p></span></div></foreignObject></g></g><g class="node default staging" id="my-svg-flowchart-WRK-9" data-look="classic" transform="translate(1368.015625, 584)"><rect class="basic label-container" style="fill:#D9822B !important;stroke:#8A4A0A !important" x="-130" y="-51" width="260" height="102"/><g class="label" style="color:#FFFFFF !important" transform="translate(-100, -36)"><rect/><foreignObject width="200" height="72"><div style="color: rgb(255, 255, 255) !important; display: table; white-space: break-spaces; line-height: 1.5; max-width: 200px; text-align: center; width: 200px;" xmlns="http://www.w3.org/1999/xhtml"><span style="color:#FFFFFF !important" class="nodeLabel"><p>Exception Staging<br />Staging_WRK / BronzeMirror_WRK</p></span></div></foreignObject></g></g><g class="node default staging" id="my-svg-flowchart-EDW-10" data-look="classic" transform="translate(523, 638)"><rect class="basic label-container" style="fill:#D9822B !important;stroke:#8A4A0A !important" x="-130" y="-63" width="260" height="126"/><g class="label" style="color:#FFFFFF !important" transform="translate(-100, -48)"><rect/><foreignObject width="200" height="96"><div style="color: rgb(255, 255, 255) !important; display: table; white-space: break-spaces; line-height: 1.5; max-width: 200px; text-align: center; width: 200px;" xmlns="http://www.w3.org/1999/xhtml"><span style="color:#FFFFFF !important" class="nodeLabel"><p>EDW Supplement<br />2 ExitCandidate / 2 NotReady<br />retire only after validation</p></span></div></foreignObject></g></g><g class="node default silver" id="my-svg-flowchart-ENH-11" data-look="classic" transform="translate(1804.984375, 407)"><rect class="basic label-container" style="fill:#C7CCD6 !important;stroke:#687080 !important" x="-130" y="-51" width="260" height="102"/><g class="label" style="color:#111111 !important" transform="translate(-100, -36)"><rect/><foreignObject width="200" height="72"><div style="color: rgb(17, 17, 17) !important; display: table; white-space: break-spaces; line-height: 1.5; max-width: 200px; text-align: center; width: 200px;" xmlns="http://www.w3.org/1999/xhtml"><span style="color:#111111 !important" class="nodeLabel"><p>Domain Silver<br />ForecastHistory / InventoryHistory</p></span></div></foreignObject></g></g><g class="node default gold" id="my-svg-flowchart-GWD-12" data-look="classic" transform="translate(2114.984375, 265)"><rect class="basic label-container" style="fill:#F2C94C !important;stroke:#9A6B00 !important" x="-130" y="-51" width="260" height="102"/><g class="label" style="color:#111111 !important" transform="translate(-100, -36)"><rect/><foreignObject width="200" height="72"><div style="color: rgb(17, 17, 17) !important; display: table; white-space: break-spaces; line-height: 1.5; max-width: 200px; text-align: center; width: 200px;" xmlns="http://www.w3.org/1999/xhtml"><span style="color:#111111 !important" class="nodeLabel"><p>Gold Physical Tables<br />Fact / Dim tables in Gold Warehouse</p></span></div></foreignObject></g></g><g class="node default gold" id="my-svg-flowchart-SEM-13" data-look="classic" transform="translate(2607.34375, 691)"><rect class="basic label-container" style="fill:#F2C94C !important;stroke:#9A6B00 !important" x="-119.78125" y="-39" width="239.5625" height="78"/><g class="label" style="color:#111111 !important" transform="translate(-89.78125, -24)"><rect/><foreignObject width="179.5625" height="48"><div style="color: rgb(17, 17, 17) !important; display: table-cell; white-space: nowrap; line-height: 1.5; max-width: 200px; text-align: center;" xmlns="http://www.w3.org/1999/xhtml"><span style="color:#111111 !important" class="nodeLabel"><p>Power BI Semantic Model<br />Direct Lake</p></span></div></foreignObject></g></g><g class="node default control" id="my-svg-flowchart-META-14" data-look="classic" transform="translate(523, 940)"><rect class="basic label-container" style="fill:#0B3D91 !important;stroke:#06275F !important" x="-130" y="-51" width="260" height="102"/><g class="label" style="color:#FFFFFF !important" transform="translate(-100, -36)"><rect/><foreignObject width="200" height="72"><div style="color: rgb(255, 255, 255) !important; display: table; white-space: break-spaces; line-height: 1.5; max-width: 200px; text-align: center; width: 200px;" xmlns="http://www.w3.org/1999/xhtml"><span style="color:#FFFFFF !important" class="nodeLabel"><p>v9 Meta Control Plane<br />sp_registry + vw_table_dictionary</p></span></div></foreignObject></g></g></g></g></g><defs><filter id="my-svg-drop-shadow" height="130%" width="130%"><feDropShadow dx="4" dy="4" stdDeviation="0" flood-opacity="0.06" flood-color="#000000"/></filter></defs><defs><filter id="my-svg-drop-shadow-small" height="150%" width="150%"><feDropShadow dx="2" dy="2" stdDeviation="0" flood-opacity="0.06" flood-color="#000000"/></filter></defs></svg>