<svg id="my-svg" width="100%" xmlns="http://www.w3.org/2000/svg" xmlns:xlink="http://www.w3.org/1999/xlink" class="flowchart" style="max-width: 2760.12px; background-color: white;" viewBox="0 0 2760.125 1135" role="graphics-document document" aria-roledescription="flowchart-v2"><style>#my-svg{font-family:"trebuchet ms",verdana,arial,sans-serif;font-size:16px;fill:#333;}@keyframes edge-animation-frame{from{stroke-dashoffset:0;}}@keyframes dash{to{stroke-dashoffset:0;}}#my-svg .edge-animation-slow{stroke-dasharray:9,5!important;stroke-dashoffset:900;animation:dash 50s linear infinite;stroke-linecap:round;}#my-svg .edge-animation-fast{stroke-dasharray:9,5!important;stroke-dashoffset:900;animation:dash 20s linear infinite;stroke-linecap:round;}#my-svg .error-icon{fill:#552222;}#my-svg .error-text{fill:#552222;stroke:#552222;}#my-svg .edge-thickness-normal{stroke-width:1px;}#my-svg .edge-thickness-thick{stroke-width:3.5px;}#my-svg .edge-pattern-solid{stroke-dasharray:0;}#my-svg .edge-thickness-invisible{stroke-width:0;fill:none;}#my-svg .edge-pattern-dashed{stroke-dasharray:3;}#my-svg .edge-pattern-dotted{stroke-dasharray:2;}#my-svg .marker{fill:#333333;stroke:#333333;}#my-svg .marker.cross{stroke:#333333;}#my-svg svg{font-family:"trebuchet ms",verdana,arial,sans-serif;font-size:16px;}#my-svg p{margin:0;}#my-svg .label{font-family:"trebuchet ms",verdana,arial,sans-serif;color:#333;}#my-svg .cluster-label text{fill:#333;}#my-svg .cluster-label span{color:#333;}#my-svg .cluster-label span p{background-color:transparent;}#my-svg .label text,#my-svg span{fill:#333;color:#333;}#my-svg .node rect,#my-svg .node circle,#my-svg .node ellipse,#my-svg .node polygon,#my-svg .node path{fill:#ECECFF;stroke:#9370DB;stroke-width:1px;}#my-svg .rough-node .label text,#my-svg .node .label text,#my-svg .image-shape .label,#my-svg .icon-shape .label{text-anchor:middle;}#my-svg .node .katex path{fill:#000;stroke:#000;stroke-width:1px;}#my-svg .rough-node .label,#my-svg .node .label,#my-svg .image-shape .label,#my-svg .icon-shape .label{text-align:center;}#my-svg .node.clickable{cursor:pointer;}#my-svg .root .anchor path{fill:#333333!important;stroke-width:0;stroke:#333333;}#my-svg .arrowheadPath{fill:#333333;}#my-svg .edgePath .path{stroke:#333333;stroke-width:1px;}#my-svg .flowchart-link{stroke:#333333;fill:none;}#my-svg .edgeLabel{background-color:rgba(232,232,232, 0.8);text-align:center;}#my-svg .edgeLabel p{background-color:rgba(232,232,232, 0.8);}#my-svg .edgeLabel rect{opacity:0.5;background-color:rgba(232,232,232, 0.8);fill:rgba(232,232,232, 0.8);}#my-svg .labelBkg{background-color:rgba(232, 232, 232, 0.5);}#my-svg .cluster rect{fill:#ffffde;stroke:#aaaa33;stroke-width:1px;}#my-svg .cluster text{fill:#333;}#my-svg .cluster span{color:#333;}#my-svg div.mermaidTooltip{position:absolute;text-align:center;max-width:200px;padding:2px;font-family:"trebuchet ms",verdana,arial,sans-serif;font-size:12px;background:hsl(80, 100%, 96.2745098039%);border:1px solid #aaaa33;border-radius:2px;pointer-events:none;z-index:100;}#my-svg .flowchartTitleText{text-anchor:middle;font-size:18px;fill:#333;}#my-svg rect.text{fill:none;stroke-width:0;}#my-svg .icon-shape,#my-svg .image-shape{background-color:rgba(232,232,232, 0.8);text-align:center;}#my-svg .icon-shape p,#my-svg .image-shape p{background-color:rgba(232,232,232, 0.8);padding:2px;}#my-svg .icon-shape .label rect,#my-svg .image-shape .label rect{opacity:0.5;background-color:rgba(232,232,232, 0.8);fill:rgba(232,232,232, 0.8);}#my-svg .label-icon{display:inline-block;height:1em;overflow:visible;vertical-align:-0.125em;}#my-svg .node .label-icon path{fill:currentColor;stroke:revert;stroke-width:revert;}#my-svg .node .neo-node{stroke:#9370DB;}#my-svg [data-look="neo"].node rect,#my-svg [data-look="neo"].cluster rect,#my-svg [data-look="neo"].node polygon{stroke:#9370DB;filter:drop-shadow(1px 2px 2px rgba(185, 185, 185, 1));}#my-svg [data-look="neo"].node path{stroke:#9370DB;stroke-width:1px;}#my-svg [data-look="neo"].node .outer-path{filter:drop-shadow(1px 2px 2px rgba(185, 185, 185, 1));}#my-svg [data-look="neo"].node .neo-line path{stroke:#9370DB;filter:none;}#my-svg [data-look="neo"].node circle{stroke:#9370DB;filter:drop-shadow(1px 2px 2px rgba(185, 185, 185, 1));}#my-svg [data-look="neo"].node circle .state-start{fill:#000000;}#my-svg [data-look="neo"].icon-shape .icon{fill:#9370DB;filter:drop-shadow(1px 2px 2px rgba(185, 185, 185, 1));}#my-svg [data-look="neo"].icon-shape .icon-neo path{stroke:#9370DB;filter:drop-shadow(1px 2px 2px rgba(185, 185, 185, 1));}#my-svg :root{--mermaid-font-family:"trebuchet ms",verdana,arial,sans-serif;}#my-svg .standard&gt;*{fill:#E8EEF7!important;stroke:#50627A!important;color:#111111!important;}#my-svg .standard span{fill:#E8EEF7!important;stroke:#50627A!important;color:#111111!important;}#my-svg .standard tspan{fill:#111111!important;}#my-svg .bronze&gt;*{fill:#B86B2B!important;stroke:#6B3A12!important;color:#FFFFFF!important;}#my-svg .bronze span{fill:#B86B2B!important;stroke:#6B3A12!important;color:#FFFFFF!important;}#my-svg .bronze tspan{fill:#FFFFFF!important;}#my-svg .staging&gt;*{fill:#D9822B!important;stroke:#8A4A0A!important;color:#FFFFFF!important;}#my-svg .staging span{fill:#D9822B!important;stroke:#8A4A0A!important;color:#FFFFFF!important;}#my-svg .staging tspan{fill:#FFFFFF!important;}#my-svg .silver&gt;*{fill:#C7CCD6!important;stroke:#687080!important;color:#111111!important;}#my-svg .silver span{fill:#C7CCD6!important;stroke:#687080!important;color:#111111!important;}#my-svg .silver tspan{fill:#111111!important;}#my-svg .gold&gt;*{fill:#F2C94C!important;stroke:#9A6B00!important;color:#111111!important;}#my-svg .gold span{fill:#F2C94C!important;stroke:#9A6B00!important;color:#111111!important;}#my-svg .gold tspan{fill:#111111!important;}#my-svg .control&gt;*{fill:#0B3D91!important;stroke:#06275F!important;color:#FFFFFF!important;}#my-svg .control span{fill:#0B3D91!important;stroke:#06275F!important;color:#FFFFFF!important;}#my-svg .control tspan{fill:#FFFFFF!important;}</style><g><marker id="my-svg_flowchart-v2-pointEnd" class="marker flowchart-v2" viewBox="0 0 10 10" refX="5" refY="5" markerUnits="userSpaceOnUse" markerWidth="8" markerHeight="8" orient="auto"><path d="M 0 0 L 10 5 L 0 10 z" class="arrowMarkerPath" style="stroke-width: 1; stroke-dasharray: 1, 0;"/></marker><marker id="my-svg_flowchart-v2-pointStart" class="marker flowchart-v2" viewBox="0 0 10 10" refX="4.5" refY="5" markerUnits="userSpaceOnUse" markerWidth="8" markerHeight="8" orient="auto"><path d="M 0 5 L 10 10 L 10 0 z" class="arrowMarkerPath" style="stroke-width: 1; stroke-dasharray: 1, 0;"/></marker><marker id="my-svg_flowchart-v2-pointEnd-margin" class="marker flowchart-v2" viewBox="0 0 11.5 14" refX="11.5" refY="7" markerUnits="userSpaceOnUse" markerWidth="10.5" markerHeight="14" orient="auto"><path d="M 0 0 L 11.5 7 L 0 14 z" class="arrowMarkerPath" style="stroke-width: 0; stroke-dasharray: 1, 0;"/></marker><marker id="my-svg_flowchart-v2-pointStart-margin" class="marker flowchart-v2" viewBox="0 0 11.5 14" refX="1" refY="7" markerUnits="userSpaceOnUse" markerWidth="11.5" markerHeight="14" orient="auto"><polygon points="0,7 11.5,14 11.5,0" class="arrowMarkerPath" style="stroke-width: 0; stroke-dasharray: 1, 0;"/></marker><marker id="my-svg_flowchart-v2-circleEnd" class="marker flowchart-v2" viewBox="0 0 10 10" refX="11" refY="5" markerUnits="userSpaceOnUse" markerWidth="11" markerHeight="11" orient="auto"><circle cx="5" cy="5" r="5" class="arrowMarkerPath" style="stroke-width: 1; stroke-dasharray: 1, 0;"/></marker><marker id="my-svg_flowchart-v2-circleStart" class="marker flowchart-v2" viewBox="0 0 10 10" refX="-1" refY="5" markerUnits="userSpaceOnUse" markerWidth="11" markerHeight="11" orient="auto"><circle cx="5" cy="5" r="5" class="arrowMarkerPath" style="stroke-width: 1; stroke-dasharray: 1, 0;"/></marker><marker id="my-svg_flowchart-v2-circleEnd-margin" class="marker flowchart-v2" viewBox="0 0 10 10" refY="5" refX="12.25" markerUnits="userSpaceOnUse" markerWidth="14" markerHeight="14" orient="auto"><circle cx="5" cy="5" r="5" class="arrowMarkerPath" style="stroke-width: 0; stroke-dasharray: 1, 0;"/></marker><marker id="my-svg_flowchart-v2-circleStart-margin" class="marker flowchart-v2" viewBox="0 0 10 10" refX="-2" refY="5" markerUnits="userSpaceOnUse" markerWidth="14" markerHeight="14" orient="auto"><circle cx="5" cy="5" r="5" class="arrowMarkerPath" style="stroke-width: 0; stroke-dasharray: 1, 0;"/></marker><marker id="my-svg_flowchart-v2-crossEnd" class="marker cross flowchart-v2" viewBox="0 0 11 11" refX="12" refY="5.2" markerUnits="userSpaceOnUse" markerWidth="11" markerHeight="11" orient="auto"><path d="M 1,1 l 9,9 M 10,1 l -9,9" class="arrowMarkerPath" style="stroke-width: 2; stroke-dasharray: 1, 0;"/></marker><marker id="my-svg_flowchart-v2-crossStart" class="marker cross flowchart-v2" viewBox="0 0 11 11" refX="-1" refY="5.2" markerUnits="userSpaceOnUse" markerWidth="11" markerHeight="11" orient="auto"><path d="M 1,1 l 9,9 M 10,1 l -9,9" class="arrowMarkerPath" style="stroke-width: 2; stroke-dasharray: 1, 0;"/></marker><marker id="my-svg_flowchart-v2-crossEnd-margin" class="marker cross flowchart-v2" viewBox="0 0 15 15" refX="17.7" refY="7.5" markerUnits="userSpaceOnUse" markerWidth="12" markerHeight="12" orient="auto"><path d="M 1,1 L 14,14 M 1,14 L 14,1" class="arrowMarkerPath" style="stroke-width: 2.5;"/></marker><marker id="my-svg_flowchart-v2-crossStart-margin" class="marker cross flowchart-v2" viewBox="0 0 15 15" refX="-3.5" refY="7.5" markerUnits="userSpaceOnUse" markerWidth="12" markerHeight="12" orient="auto"><path d="M 1,1 L 14,14 M 1,14 L 14,1" class="arrowMarkerPath" style="stroke-width: 2.5; stroke-dasharray: 1, 0;"/></marker><g class="root"><g class="clusters"><g class="cluster" id="my-svg-V10" data-look="classic"><rect style="" x="368" y="8" width="2384.125" height="1076"/><g class="cluster-label" transform="translate(1427.9375, 8)"><foreignObject width="264.25" height="24"><div xmlns="http://www.w3.org/1999/xhtml" style="display: table-cell; white-space: nowrap; line-height: 1.5;"><span class="nodeLabel"><p>Fabric v10 Supply Chain Architecture</p></span></div></foreignObject></g></g><g class="cluster" id="my-svg-BOB" data-look="classic"><rect style="" x="8" y="8" width="310" height="1119"/><g class="cluster-label" transform="translate(82.703125, 8)"><foreignObject width="160.59375" height="24"><div xmlns="http://www.w3.org/1999/xhtml" style="display: table-cell; white-space: nowrap; line-height: 1.5;"><span class="nodeLabel"><p>Bob SQL DW Standards</p></span></div></foreignObject></g></g></g><g class="edgePaths"><path d="M194.245,323L214.871,356.667C235.497,390.333,276.748,457.667,301.541,491.333C326.333,525,334.667,525,343,525C351.333,525,359.667,525,389.667,525C419.667,525,471.333,525,527.799,525C584.266,525,645.531,525,708.184,525C770.836,525,834.875,525,906.68,525C978.484,525,1058.055,525,1113.911,527.232C1169.768,529.464,1201.911,533.929,1217.982,536.161L1234.054,538.393" id="my-svg-L_SCH_WRK_0" class="edge-thickness-normal edge-pattern-solid edge-thickness-normal edge-pattern-solid flowchart-link" style=";" data-edge="true" data-et="edge" data-id="L_SCH_WRK_0" data-points="W3sieCI6MTk0LjI0NTA1OTI4ODUzNzU2LCJ5IjozMjN9LHsieCI6MzE4LCJ5Ijo1MjV9LHsieCI6MzQzLCJ5Ijo1MjV9LHsieCI6MzY4LCJ5Ijo1MjV9LHsieCI6NTIzLCJ5Ijo1MjV9LHsieCI6NzA2Ljc5Njg3NSwieSI6NTI1fSx7IngiOjg5OC45MTQwNjI1LCJ5Ijo1MjV9LHsieCI6MTEzNy42MjUsInkiOjUyNX0seyJ4IjoxMjM4LjAxNTYyNSwieSI6NTM4Ljk0MzcwOTczMjExMjZ9XQ==" data-look="classic" marker-end="url(#my-svg_flowchart-v2-pointEnd)"/><path d="M293,224.194L297.167,222.661C301.333,221.129,309.667,218.065,318,216.532C326.333,215,334.667,215,343,215C351.333,215,359.667,215,389.667,215C419.667,215,471.333,215,527.799,215C584.266,215,645.531,215,708.184,215C770.836,215,834.875,215,906.68,215C978.484,215,1058.055,215,1136.238,215C1214.422,215,1291.219,215,1366.031,215C1440.844,215,1513.672,215,1577.509,242.362C1641.346,269.725,1696.193,324.45,1723.616,351.812L1751.039,379.175" id="my-svg-L_SCH_ENH_0" class="edge-thickness-normal edge-pattern-solid edge-thickness-normal edge-pattern-solid flowchart-link" style=";" data-edge="true" data-et="edge" data-id="L_SCH_ENH_0" data-points="W3sieCI6MjkzLCJ5IjoyMjQuMTkzNTQ4Mzg3MDk2Nzd9LHsieCI6MzE4LCJ5IjoyMTV9LHsieCI6MzQzLCJ5IjoyMTV9LHsieCI6MzY4LCJ5IjoyMTV9LHsieCI6NTIzLCJ5IjoyMTV9LHsieCI6NzA2Ljc5Njg3NSwieSI6MjE1fSx7IngiOjg5OC45MTQwNjI1LCJ5IjoyMTV9LHsieCI6MTEzNy42MjUsInkiOjIxNX0seyJ4IjoxMzY4LjAxNTYyNSwieSI6MjE1fSx7IngiOjE1ODYuNSwieSI6MjE1fSx7IngiOjE3NTMuODcxMDU3OTEyODQ0LCJ5IjozODJ9XQ==" data-look="classic" marker-end="url(#my-svg_flowchart-v2-pointEnd)"/><path d="M202.328,221L221.607,196C240.886,171,279.443,121,302.888,96C326.333,71,334.667,71,343,71C351.333,71,359.667,71,389.667,71C419.667,71,471.333,71,527.799,71C584.266,71,645.531,71,708.184,71C770.836,71,834.875,71,906.68,71C978.484,71,1058.055,71,1136.238,71C1214.422,71,1291.219,71,1366.031,71C1440.844,71,1513.672,71,1586.5,71C1659.328,71,1732.156,71,1794.404,71C1856.651,71,1908.318,71,1952.777,94.312C1997.236,117.625,2034.488,164.25,2053.114,187.562L2071.74,210.875" id="my-svg-L_SCH_GWD_0" class="edge-thickness-normal edge-pattern-solid edge-thickness-normal edge-pattern-solid flowchart-link" style=";" data-edge="true" data-et="edge" data-id="L_SCH_GWD_0" data-points="W3sieCI6MjAyLjMyODM1ODIwODk1NTIyLCJ5IjoyMjF9LHsieCI6MzE4LCJ5Ijo3MX0seyJ4IjozNDMsInkiOjcxfSx7IngiOjM2OCwieSI6NzF9LHsieCI6NTIzLCJ5Ijo3MX0seyJ4Ijo3MDYuNzk2ODc1LCJ5Ijo3MX0seyJ4Ijo4OTguOTE0MDYyNSwieSI6NzF9LHsieCI6MTEzNy42MjUsInkiOjcxfSx7IngiOjEzNjguMDE1NjI1LCJ5Ijo3MX0seyJ4IjoxNTg2LjUsInkiOjcxfSx7IngiOjE4MDQuOTg0Mzc1LCJ5Ijo3MX0seyJ4IjoxOTU5Ljk4NDM3NSwieSI6NzF9LHsieCI6MjA3NC4yMzY5NTIzMTk1ODc1LCJ5IjoyMTR9XQ==" data-look="classic" marker-end="url(#my-svg_flowchart-v2-pointEnd)"/><path d="M288.305,404.598L293.254,403.832C298.203,403.065,308.102,401.533,317.217,400.766C326.333,400,334.667,400,343,400C351.333,400,359.667,400,389.667,400C419.667,400,471.333,400,527.799,400C584.266,400,645.531,400,684.473,401.427C723.415,402.855,740.033,405.709,748.342,407.136L756.651,408.564" id="my-svg-L_NAM_BRZ_0" class="edge-thickness-normal edge-pattern-solid edge-thickness-normal edge-pattern-solid flowchart-link" style=";" data-edge="true" data-et="edge" data-id="L_NAM_BRZ_0" data-points="W3sieCI6Mjg4LjMwNDY4NzUsInkiOjQwNC41OTc5ODM4NzA5Njc3N30seyJ4IjozMTgsInkiOjQwMH0seyJ4IjozNDMsInkiOjQwMH0seyJ4IjozNjgsInkiOjQwMH0seyJ4Ijo1MjMsInkiOjQwMH0seyJ4Ijo3MDYuNzk2ODc1LCJ5Ijo0MDB9LHsieCI6NzYwLjU5Mzc1LCJ5Ijo0MDkuMjQwNjk3ODE2Mjc0MjN9XQ==" data-look="classic" marker-end="url(#my-svg_flowchart-v2-pointEnd)"/><path d="M265.662,373L274.385,368.667C283.108,364.333,300.554,355.667,313.444,351.333C326.333,347,334.667,347,343,347C351.333,347,359.667,347,389.667,347C419.667,347,471.333,347,527.799,347C584.266,347,645.531,347,708.184,347C770.836,347,834.875,347,906.68,347C978.484,347,1058.055,347,1136.238,347C1214.422,347,1291.219,347,1366.031,347C1440.844,347,1513.672,347,1564.285,352.589C1614.899,358.178,1643.297,369.357,1657.497,374.946L1671.696,380.535" id="my-svg-L_NAM_ENH_0" class="edge-thickness-normal edge-pattern-solid edge-thickness-normal edge-pattern-solid flowchart-link" style=";" data-edge="true" data-et="edge" data-id="L_NAM_ENH_0" data-points="W3sieCI6MjY1LjY2MjMzNzY2MjMzNzcsInkiOjM3M30seyJ4IjozMTgsInkiOjM0N30seyJ4IjozNDMsInkiOjM0N30seyJ4IjozNjgsInkiOjM0N30seyJ4Ijo1MjMsInkiOjM0N30seyJ4Ijo3MDYuNzk2ODc1LCJ5IjozNDd9LHsieCI6ODk4LjkxNDA2MjUsInkiOjM0N30seyJ4IjoxMTM3LjYyNSwieSI6MzQ3fSx7IngiOjEzNjguMDE1NjI1LCJ5IjozNDd9LHsieCI6MTU4Ni41LCJ5IjozNDd9LHsieCI6MTY3NS40MTgwNTk1OTMwMjM0LCJ5IjozODJ9XQ==" data-look="classic" marker-end="url(#my-svg_flowchart-v2-pointEnd)"/><path d="M186.739,373L208.616,326C230.492,279,274.246,185,300.29,138C326.333,91,334.667,91,343,91C351.333,91,359.667,91,389.667,91C419.667,91,471.333,91,527.799,91C584.266,91,645.531,91,708.184,91C770.836,91,834.875,91,906.68,91C978.484,91,1058.055,91,1136.238,91C1214.422,91,1291.219,91,1366.031,91C1440.844,91,1513.672,91,1586.5,91C1659.328,91,1732.156,91,1794.404,91C1856.651,91,1908.318,91,1951.969,111.002C1995.62,131.004,2031.257,171.009,2049.075,191.011L2066.893,211.013" id="my-svg-L_NAM_GWD_0" class="edge-thickness-normal edge-pattern-solid edge-thickness-normal edge-pattern-solid flowchart-link" style=";" data-edge="true" data-et="edge" data-id="L_NAM_GWD_0" data-points="W3sieCI6MTg2LjczODczODczODczODczLCJ5IjozNzN9LHsieCI6MzE4LCJ5Ijo5MX0seyJ4IjozNDMsInkiOjkxfSx7IngiOjM2OCwieSI6OTF9LHsieCI6NTIzLCJ5Ijo5MX0seyJ4Ijo3MDYuNzk2ODc1LCJ5Ijo5MX0seyJ4Ijo4OTguOTE0MDYyNSwieSI6OTF9LHsieCI6MTEzNy42MjUsInkiOjkxfSx7IngiOjEzNjguMDE1NjI1LCJ5Ijo5MX0seyJ4IjoxNTg2LjUsInkiOjkxfSx7IngiOjE4MDQuOTg0Mzc1LCJ5Ijo5MX0seyJ4IjoxOTU5Ljk4NDM3NSwieSI6OTF9LHsieCI6MjA2OS41NTMzNDA1MTcyNDE0LCJ5IjoyMTR9XQ==" data-look="classic" marker-end="url(#my-svg_flowchart-v2-pointEnd)"/><path d="M287.719,645L292.766,645C297.813,645,307.906,645,317.12,645C326.333,645,334.667,645,343,645C351.333,645,359.667,645,381.56,664.671C403.454,684.343,438.909,723.686,456.636,743.357L474.363,763.029" id="my-svg-L_TD_META_0" class="edge-thickness-normal edge-pattern-solid edge-thickness-normal edge-pattern-solid flowchart-link" style=";" data-edge="true" data-et="edge" data-id="L_TD_META_0" data-points="W3sieCI6Mjg3LjcxODc1LCJ5Ijo2NDV9LHsieCI6MzE4LCJ5Ijo2NDV9LHsieCI6MzQzLCJ5Ijo2NDV9LHsieCI6MzY4LCJ5Ijo2NDV9LHsieCI6NDc3LjA0MDY5NzY3NDQxODYsInkiOjc2Nn1d" data-look="classic" marker-end="url(#my-svg_flowchart-v2-pointEnd)"/><path d="M292.172,773L296.477,773C300.781,773,309.391,773,317.862,773C326.333,773,334.667,773,343,773C351.333,773,359.667,773,367.359,774.001C375.051,775.001,382.101,777.003,385.627,778.004L389.152,779.004" id="my-svg-L_SEC_META_0" class="edge-thickness-normal edge-pattern-solid edge-thickness-normal edge-pattern-solid flowchart-link" style=";" data-edge="true" data-et="edge" data-id="L_SEC_META_0" data-points="W3sieCI6MjkyLjE3MTg3NSwieSI6NzczfSx7IngiOjMxOCwieSI6NzczfSx7IngiOjM0MywieSI6NzczfSx7IngiOjM2OCwieSI6NzczfSx7IngiOjM5MywieSI6NzgwLjA5Njc3NDE5MzU0ODR9XQ==" data-look="classic" marker-end="url(#my-svg_flowchart-v2-pointEnd)"/><path d="M291.375,901L295.813,901C300.25,901,309.125,901,317.729,901C326.333,901,334.667,901,343,901C351.333,901,359.667,901,373.396,895.818C387.125,890.635,406.251,880.271,415.813,875.088L425.376,869.906" id="my-svg-L_GOV_META_0" class="edge-thickness-normal edge-pattern-solid edge-thickness-normal edge-pattern-solid flowchart-link" style=";" data-edge="true" data-et="edge" data-id="L_GOV_META_0" data-points="W3sieCI6MjkxLjM3NSwieSI6OTAxfSx7IngiOjMxOCwieSI6OTAxfSx7IngiOjM0MywieSI6OTAxfSx7IngiOjM2OCwieSI6OTAxfSx7IngiOjQyOC44OTI4NTcxNDI4NTcxLCJ5Ijo4Njh9XQ==" data-look="classic" marker-end="url(#my-svg_flowchart-v2-pointEnd)"/><path d="M293,1041L297.167,1041C301.333,1041,309.667,1041,318,1041C326.333,1041,334.667,1041,343,1041C351.333,1041,359.667,1041,383.406,1012.715C407.145,984.43,446.289,927.86,465.861,899.574L485.434,871.289" id="my-svg-L_PERF_META_0" class="edge-thickness-normal edge-pattern-solid edge-thickness-normal edge-pattern-solid flowchart-link" style=";" data-edge="true" data-et="edge" data-id="L_PERF_META_0" data-points="W3sieCI6MjkzLCJ5IjoxMDQxfSx7IngiOjMxOCwieSI6MTA0MX0seyJ4IjozNDMsInkiOjEwNDF9LHsieCI6MzY4LCJ5IjoxMDQxfSx7IngiOjQ4Ny43MDk4MjE0Mjg1NzE0NCwieSI6ODY4fV0=" data-look="classic" marker-end="url(#my-svg_flowchart-v2-pointEnd)"/><path d="M293,118.806L297.167,119.505C301.333,120.204,309.667,121.602,318,122.301C326.333,123,334.667,123,343,123C351.333,123,359.667,123,389.667,123C419.667,123,471.333,123,527.799,123C584.266,123,645.531,123,708.184,123C770.836,123,834.875,123,906.68,123C978.484,123,1058.055,123,1136.238,123C1214.422,123,1291.219,123,1366.031,123C1440.844,123,1513.672,123,1586.5,123C1659.328,123,1732.156,123,1794.404,123C1856.651,123,1908.318,123,1950.215,137.716C1992.112,152.433,2024.239,181.865,2040.302,196.582L2056.366,211.298" id="my-svg-L_BI_GWD_0" class="edge-thickness-normal edge-pattern-solid edge-thickness-normal edge-pattern-solid flowchart-link" style=";" data-edge="true" data-et="edge" data-id="L_BI_GWD_0" data-points="W3sieCI6MjkzLCJ5IjoxMTguODA2NDUxNjEyOTAzMjN9LHsieCI6MzE4LCJ5IjoxMjN9LHsieCI6MzQzLCJ5IjoxMjN9LHsieCI6MzY4LCJ5IjoxMjN9LHsieCI6NTIzLCJ5IjoxMjN9LHsieCI6NzA2Ljc5Njg3NSwieSI6MTIzfSx7IngiOjg5OC45MTQwNjI1LCJ5IjoxMjN9LHsieCI6MTEzNy42MjUsInkiOjEyM30seyJ4IjoxMzY4LjAxNTYyNSwieSI6MTIzfSx7IngiOjE1ODYuNSwieSI6MTIzfSx7IngiOjE4MDQuOTg0Mzc1LCJ5IjoxMjN9LHsieCI6MTk1OS45ODQzNzUsInkiOjEyM30seyJ4IjoyMDU5LjMxNTM2MDkxNTQ5MywieSI6MjE0fV0=" data-look="classic" marker-end="url(#my-svg_flowchart-v2-pointEnd)"/><path d="M2244.984,265L2265.199,265C2285.414,265,2325.844,265,2381.824,322.268C2437.805,379.536,2509.337,494.072,2545.102,551.339L2580.868,608.607" id="my-svg-L_GWD_SEM_0" class="edge-thickness-normal edge-pattern-solid edge-thickness-normal edge-pattern-solid flowchart-link" style=";" data-edge="true" data-et="edge" data-id="L_GWD_SEM_0" data-points="W3sieCI6MjI0NC45ODQzNzUsInkiOjI2NX0seyJ4IjoyMzY2LjI3MzQzNzUsInkiOjI2NX0seyJ4IjoyNTgyLjk4NjkwNDk1NDY2MzMsInkiOjYxMn1d" data-look="classic" marker-end="url(#my-svg_flowchart-v2-pointEnd)"/><path d="M1037.234,433L1053.966,433C1070.698,433,1104.161,433,1159.292,433C1214.422,433,1291.219,433,1366.031,433C1440.844,433,1513.672,433,1564.167,433C1614.661,433,1642.823,433,1656.904,433L1670.984,433" id="my-svg-L_BRZ_ENH_0" class="edge-thickness-normal edge-pattern-solid edge-thickness-normal edge-pattern-solid flowchart-link" style=";" data-edge="true" data-et="edge" data-id="L_BRZ_ENH_0" data-points="W3sieCI6MTAzNy4yMzQzNzUsInkiOjQzM30seyJ4IjoxMTM3LjYyNSwieSI6NDMzfSx7IngiOjEzNjguMDE1NjI1LCJ5Ijo0MzN9LHsieCI6MTU4Ni41LCJ5Ijo0MzN9LHsieCI6MTY3NC45ODQzNzUsInkiOjQzM31d" data-look="classic" marker-end="url(#my-svg_flowchart-v2-pointEnd)"/><path d="M997.094,484L1020.515,496.167C1043.937,508.333,1090.781,532.667,1130.268,544.833C1169.755,557,1201.885,557,1217.951,557L1234.016,557" id="my-svg-L_BRZ_WRK_0" class="edge-thickness-normal edge-pattern-solid edge-thickness-normal edge-pattern-solid flowchart-link" style=";" data-edge="true" data-et="edge" data-id="L_BRZ_WRK_0" data-points="W3sieCI6OTk3LjA5MzU2MDk4NzkwMzIsInkiOjQ4NH0seyJ4IjoxMTM3LjYyNSwieSI6NTU3fSx7IngiOjEyMzguMDE1NjI1LCJ5Ijo1NTd9XQ==" data-look="classic" marker-end="url(#my-svg_flowchart-v2-pointEnd)"/><path d="M1498.016,557L1512.763,557C1527.51,557,1557.005,557,1592.61,545.162C1628.215,533.325,1669.93,509.65,1690.788,497.812L1711.645,485.974" id="my-svg-L_WRK_ENH_0" class="edge-thickness-normal edge-pattern-solid edge-thickness-normal edge-pattern-solid flowchart-link" style=";" data-edge="true" data-et="edge" data-id="L_WRK_ENH_0" data-points="W3sieCI6MTQ5OC4wMTU2MjUsInkiOjU1N30seyJ4IjoxNTg2LjUsInkiOjU1N30seyJ4IjoxNzE1LjEyMzg2NTkyNzQxOTMsInkiOjQ4NH1d" data-look="classic" marker-end="url(#my-svg_flowchart-v2-pointEnd)"/><path d="M1934.984,433L1939.151,433C1943.318,433,1951.651,433,1973.357,413.99C1995.062,394.98,2030.14,356.96,2047.679,337.95L2065.218,318.94" id="my-svg-L_ENH_GWD_0" class="edge-thickness-normal edge-pattern-solid edge-thickness-normal edge-pattern-solid flowchart-link" style=";" data-edge="true" data-et="edge" data-id="L_ENH_GWD_0" data-points="W3sieCI6MTkzNC45ODQzNzUsInkiOjQzM30seyJ4IjoxOTU5Ljk4NDM3NSwieSI6NDMzfSx7IngiOjIwNjcuOTMwODAzNTcxNDI4NCwieSI6MzE2fV0=" data-look="classic" marker-end="url(#my-svg_flowchart-v2-pointEnd)"/><path d="M549.706,766L575.887,716C602.069,666,654.433,566,688.924,514.573C723.415,463.145,740.033,460.291,748.342,458.864L756.651,457.436" id="my-svg-L_META_BRZ_0" class="edge-thickness-normal edge-pattern-dotted edge-thickness-normal edge-pattern-solid flowchart-link" style=";" data-edge="true" data-et="edge" data-id="L_META_BRZ_0" data-points="W3sieCI6NTQ5LjcwNTUyODg0NjE1MzgsInkiOjc2Nn0seyJ4Ijo3MDYuNzk2ODc1LCJ5Ijo0NjZ9LHsieCI6NzYwLjU5Mzc1LCJ5Ijo0NTYuNzU5MzAyMTgzNzI1Nzd9XQ==" data-look="classic" marker-end="url(#my-svg_flowchart-v2-pointEnd)"/><path d="M564.112,766L587.893,736.5C611.674,707,659.235,648,715.036,618.5C770.836,589,834.875,589,906.68,589C978.484,589,1058.055,589,1113.911,586.768C1169.768,584.536,1201.911,580.071,1217.982,577.839L1234.054,575.607" id="my-svg-L_META_WRK_0" class="edge-thickness-normal edge-pattern-dotted edge-thickness-normal edge-pattern-solid flowchart-link" style=";" data-edge="true" data-et="edge" data-id="L_META_WRK_0" data-points="W3sieCI6NTY0LjExMjQ1ODg4MTU3OSwieSI6NzY2fSx7IngiOjcwNi43OTY4NzUsInkiOjU4OX0seyJ4Ijo4OTguOTE0MDYyNSwieSI6NTg5fSx7IngiOjExMzcuNjI1LCJ5Ijo1ODl9LHsieCI6MTIzOC4wMTU2MjUsInkiOjU3NS4wNTYyOTAyNjc4ODc0fV0=" data-look="classic" marker-end="url(#my-svg_flowchart-v2-pointEnd)"/><path d="M653,791.537L661.966,789.781C670.932,788.025,688.865,784.512,729.85,782.756C770.836,781,834.875,781,906.68,781C978.484,781,1058.055,781,1136.238,781C1214.422,781,1291.219,781,1366.031,781C1440.844,781,1513.672,781,1580.809,732.065C1647.946,683.129,1709.392,585.258,1740.115,536.323L1770.838,487.388" id="my-svg-L_META_ENH_0" class="edge-thickness-normal edge-pattern-dotted edge-thickness-normal edge-pattern-solid flowchart-link" style=";" data-edge="true" data-et="edge" data-id="L_META_ENH_0" data-points="W3sieCI6NjUzLCJ5Ijo3OTEuNTM3MTA3ODgwNjQyN30seyJ4Ijo3MDYuNzk2ODc1LCJ5Ijo3ODF9LHsieCI6ODk4LjkxNDA2MjUsInkiOjc4MX0seyJ4IjoxMTM3LjYyNSwieSI6NzgxfSx7IngiOjEzNjguMDE1NjI1LCJ5Ijo3ODF9LHsieCI6MTU4Ni41LCJ5Ijo3ODF9LHsieCI6MTc3Mi45NjUxMTMxNDY1NTE2LCJ5Ijo0ODR9XQ==" data-look="classic" marker-end="url(#my-svg_flowchart-v2-pointEnd)"/><path d="M583.475,868L604.029,885.333C624.582,902.667,665.69,937.333,718.263,954.667C770.836,972,834.875,972,906.68,972C978.484,972,1058.055,972,1136.238,972C1214.422,972,1291.219,972,1366.031,972C1440.844,972,1513.672,972,1586.5,972C1659.328,972,1732.156,972,1794.404,972C1856.651,972,1908.318,972,1957.978,863.318C2007.638,754.636,2055.293,537.271,2079.12,428.589L2102.947,319.907" id="my-svg-L_META_GWD_0" class="edge-thickness-normal edge-pattern-dotted edge-thickness-normal edge-pattern-solid flowchart-link" style=";" data-edge="true" data-et="edge" data-id="L_META_GWD_0" data-points="W3sieCI6NTgzLjQ3NTEwMDgwNjQ1MTYsInkiOjg2OH0seyJ4Ijo3MDYuNzk2ODc1LCJ5Ijo5NzJ9LHsieCI6ODk4LjkxNDA2MjUsInkiOjk3Mn0seyJ4IjoxMTM3LjYyNSwieSI6OTcyfSx7IngiOjEzNjguMDE1NjI1LCJ5Ijo5NzJ9LHsieCI6MTU4Ni41LCJ5Ijo5NzJ9LHsieCI6MTgwNC45ODQzNzUsInkiOjk3Mn0seyJ4IjoxOTU5Ljk4NDM3NSwieSI6OTcyfSx7IngiOjIxMDMuODAzMzI4MzIzOTAzOCwieSI6MzE2fV0=" data-look="classic" marker-end="url(#my-svg_flowchart-v2-pointEnd)"/><path d="M566.802,868L590.135,895.167C613.467,922.333,660.132,976.667,715.484,1003.833C770.836,1031,834.875,1031,906.68,1031C978.484,1031,1058.055,1031,1136.238,1031C1214.422,1031,1291.219,1031,1366.031,1031C1440.844,1031,1513.672,1031,1586.5,1031C1659.328,1031,1732.156,1031,1794.404,1031C1856.651,1031,1908.318,1031,1959.984,1031C2011.651,1031,2063.318,1031,2131.033,1031C2198.747,1031,2282.51,1031,2360.09,974.73C2437.669,918.459,2509.064,805.918,2544.762,749.648L2580.46,693.378" id="my-svg-L_META_SEM_0" class="edge-thickness-normal edge-pattern-dotted edge-thickness-normal edge-pattern-solid flowchart-link" style=";" data-edge="true" data-et="edge" data-id="L_META_SEM_0" data-points="W3sieCI6NTY2LjgwMjA1ODk5NTMyNzEsInkiOjg2OH0seyJ4Ijo3MDYuNzk2ODc1LCJ5IjoxMDMxfSx7IngiOjg5OC45MTQwNjI1LCJ5IjoxMDMxfSx7IngiOjExMzcuNjI1LCJ5IjoxMDMxfSx7IngiOjEzNjguMDE1NjI1LCJ5IjoxMDMxfSx7IngiOjE1ODYuNSwieSI6MTAzMX0seyJ4IjoxODA0Ljk4NDM3NSwieSI6MTAzMX0seyJ4IjoxOTU5Ljk4NDM3NSwieSI6MTAzMX0seyJ4IjoyMTE0Ljk4NDM3NSwieSI6MTAzMX0seyJ4IjoyMzY2LjI3MzQzNzUsInkiOjEwMzF9LHsieCI6MjU4Mi42MDIzMjMxOTA3ODkzLCJ5Ijo2OTB9XQ==" data-look="classic" marker-end="url(#my-svg_flowchart-v2-pointEnd)"/></g><g class="edgeLabels"><g class="edgeLabel"><g class="label" data-id="L_SCH_WRK_0" transform="translate(0, 0)"><foreignObject width="0" height="0"><div xmlns="http://www.w3.org/1999/xhtml" class="labelBkg" style="display: table-cell; white-space: nowrap; line-height: 1.5; max-width: 200px; text-align: center;"><span class="edgeLabel"></span></div></foreignObject></g></g><g class="edgeLabel"><g class="label" data-id="L_SCH_ENH_0" transform="translate(0, 0)"><foreignObject width="0" height="0"><div xmlns="http://www.w3.org/1999/xhtml" class="labelBkg" style="display: table-cell; white-space: nowrap; line-height: 1.5; max-width: 200px; text-align: center;"><span class="edgeLabel"></span></div></foreignObject></g></g><g class="edgeLabel"><g class="label" data-id="L_SCH_GWD_0" transform="translate(0, 0)"><foreignObject width="0" height="0"><div xmlns="http://www.w3.org/1999/xhtml" class="labelBkg" style="display: table-cell; white-space: nowrap; line-height: 1.5; max-width: 200px; text-align: center;"><span class="edgeLabel"></span></div></foreignObject></g></g><g class="edgeLabel"><g class="label" data-id="L_NAM_BRZ_0" transform="translate(0, 0)"><foreignObject width="0" height="0"><div xmlns="http://www.w3.org/1999/xhtml" class="labelBkg" style="display: table-cell; white-space: nowrap; line-height: 1.5; max-width: 200px; text-align: center;"><span class="edgeLabel"></span></div></foreignObject></g></g><g class="edgeLabel"><g class="label" data-id="L_NAM_ENH_0" transform="translate(0, 0)"><foreignObject width="0" height="0"><div xmlns="http://www.w3.org/1999/xhtml" class="labelBkg" style="display: table-cell; white-space: nowrap; line-height: 1.5; max-width: 200px; text-align: center;"><span class="edgeLabel"></span></div></foreignObject></g></g><g class="edgeLabel"><g class="label" data-id="L_NAM_GWD_0" transform="translate(0, 0)"><foreignObject width="0" height="0"><div xmlns="http://www.w3.org/1999/xhtml" class="labelBkg" style="display: table-cell; white-space: nowrap; line-height: 1.5; max-width: 200px; text-align: center;"><span class="edgeLabel"></span></div></foreignObject></g></g><g class="edgeLabel"><g class="label" data-id="L_TD_META_0" transform="translate(0, 0)"><foreignObject width="0" height="0"><div xmlns="http://www.w3.org/1999/xhtml" class="labelBkg" style="display: table-cell; white-space: nowrap; line-height: 1.5; max-width: 200px; text-align: center;"><span class="edgeLabel"></span></div></foreignObject></g></g><g class="edgeLabel"><g class="label" data-id="L_SEC_META_0" transform="translate(0, 0)"><foreignObject width="0" height="0"><div xmlns="http://www.w3.org/1999/xhtml" class="labelBkg" style="display: table-cell; white-space: nowrap; line-height: 1.5; max-width: 200px; text-align: center;"><span class="edgeLabel"></span></div></foreignObject></g></g><g class="edgeLabel"><g class="label" data-id="L_GOV_META_0" transform="translate(0, 0)"><foreignObject width="0" height="0"><div xmlns="http://www.w3.org/1999/xhtml" class="labelBkg" style="display: table-cell; white-space: nowrap; line-height: 1.5; max-width: 200px; text-align: center;"><span class="edgeLabel"></span></div></foreignObject></g></g><g class="edgeLabel"><g class="label" data-id="L_PERF_META_0" transform="translate(0, 0)"><foreignObject width="0" height="0"><div xmlns="http://www.w3.org/1999/xhtml" class="labelBkg" style="display: table-cell; white-space: nowrap; line-height: 1.5; max-width: 200px; text-align: center;"><span class="edgeLabel"></span></div></foreignObject></g></g><g class="edgeLabel" transform="translate(1137.625, 123)"><g class="label" data-id="L_BI_GWD_0" transform="translate(-75.390625, -12)"><foreignObject width="150.78125" height="24"><div xmlns="http://www.w3.org/1999/xhtml" class="labelBkg" style="display: table-cell; white-space: nowrap; line-height: 1.5; max-width: 200px; text-align: center;"><span class="edgeLabel"><p>do not apply literally</p></span></div></foreignObject></g></g><g class="edgeLabel" transform="translate(2366.2734375, 265)"><g class="label" data-id="L_GWD_SEM_0" transform="translate(-96.2890625, -12)"><foreignObject width="192.578125" height="24"><div xmlns="http://www.w3.org/1999/xhtml" class="labelBkg" style="display: table-cell; white-space: nowrap; line-height: 1.5; max-width: 200px; text-align: center;"><span class="edgeLabel"><p>Direct Lake physical tables</p></span></div></foreignObject></g></g><g class="edgeLabel" transform="translate(1368.015625, 433)"><g class="label" data-id="L_BRZ_ENH_0" transform="translate(-60.453125, -12)"><foreignObject width="120.90625" height="24"><div xmlns="http://www.w3.org/1999/xhtml" class="labelBkg" style="display: table-cell; white-space: nowrap; line-height: 1.5; max-width: 200px; text-align: center;"><span class="edgeLabel"><p>direct by default</p></span></div></foreignObject></g></g><g class="edgeLabel" transform="translate(1137.625, 557)"><g class="label" data-id="L_BRZ_WRK_0" transform="translate(-67.484375, -12)"><foreignObject width="134.96875" height="24"><div xmlns="http://www.w3.org/1999/xhtml" class="labelBkg" style="display: table-cell; white-space: nowrap; line-height: 1.5; max-width: 200px; text-align: center;"><span class="edgeLabel"><p>stage by exception</p></span></div></foreignObject></g></g><g class="edgeLabel"><g class="label" data-id="L_WRK_ENH_0" transform="translate(0, 0)"><foreignObject width="0" height="0"><div xmlns="http://www.w3.org/1999/xhtml" class="labelBkg" style="display: table-cell; white-space: nowrap; line-height: 1.5; max-width: 200px; text-align: center;"><span class="edgeLabel"></span></div></foreignObject></g></g><g class="edgeLabel"><g class="label" data-id="L_ENH_GWD_0" transform="translate(0, 0)"><foreignObject width="0" height="0"><div xmlns="http://www.w3.org/1999/xhtml" class="labelBkg" style="display: table-cell; white-space: nowrap; line-height: 1.5; max-width: 200px; text-align: center;"><span class="edgeLabel"></span></div></foreignObject></g></g><g class="edgeLabel" transform="translate(640.9118, 591.82185)"><g class="label" data-id="L_META_BRZ_0" transform="translate(-28.796875, -12)"><foreignObject width="57.59375" height="24"><div xmlns="http://www.w3.org/1999/xhtml" class="labelBkg" style="display: table-cell; white-space: nowrap; line-height: 1.5; max-width: 200px; text-align: center;"><span class="edgeLabel"><p>controls</p></span></div></foreignObject></g></g><g class="edgeLabel" transform="translate(898.9140625, 589)"><g class="label" data-id="L_META_WRK_0" transform="translate(-28.796875, -12)"><foreignObject width="57.59375" height="24"><div xmlns="http://www.w3.org/1999/xhtml" class="labelBkg" style="display: table-cell; white-space: nowrap; line-height: 1.5; max-width: 200px; text-align: center;"><span class="edgeLabel"><p>controls</p></span></div></foreignObject></g></g><g class="edgeLabel" transform="translate(1137.625, 781)"><g class="label" data-id="L_META_ENH_0" transform="translate(-28.796875, -12)"><foreignObject width="57.59375" height="24"><div xmlns="http://www.w3.org/1999/xhtml" class="labelBkg" style="display: table-cell; white-space: nowrap; line-height: 1.5; max-width: 200px; text-align: center;"><span class="edgeLabel"><p>controls</p></span></div></foreignObject></g></g><g class="edgeLabel" transform="translate(1368.015625, 972)"><g class="label" data-id="L_META_GWD_0" transform="translate(-28.796875, -12)"><foreignObject width="57.59375" height="24"><div xmlns="http://www.w3.org/1999/xhtml" class="labelBkg" style="display: table-cell; white-space: nowrap; line-height: 1.5; max-width: 200px; text-align: center;"><span class="edgeLabel"><p>controls</p></span></div></foreignObject></g></g><g class="edgeLabel" transform="translate(1586.5, 1031)"><g class="label" data-id="L_META_SEM_0" transform="translate(-63.484375, -12)"><foreignObject width="126.96875" height="24"><div xmlns="http://www.w3.org/1999/xhtml" class="labelBkg" style="display: table-cell; white-space: nowrap; line-height: 1.5; max-width: 200px; text-align: center;"><span class="edgeLabel"><p>refresh + validate</p></span></div></foreignObject></g></g></g><g class="nodes"><g class="node default standard" id="my-svg-flowchart-SCH-0" data-look="classic" transform="translate(163, 272)"><rect class="basic label-container" style="fill:#E8EEF7 !important;stroke:#50627A !important" x="-130" y="-51" width="260" height="102"/><g class="label" style="color:#111111 !important" transform="translate(-100, -36)"><rect/><foreignObject width="200" height="72"><div style="color: rgb(17, 17, 17) !important; display: table; white-space: break-spaces; line-height: 1.5; max-width: 200px; text-align: center; width: 200px;" xmlns="http://www.w3.org/1999/xhtml"><span style="color:#111111 !important" class="nodeLabel"><p>Schema taxonomy<br />WRK / ENH / DW / Audit / Archive</p></span></div></foreignObject></g></g><g class="node default standard" id="my-svg-flowchart-NAM-1" data-look="classic" transform="translate(163, 424)"><rect class="basic label-container" style="fill:#E8EEF7 !important;stroke:#50627A !important" x="-125.3046875" y="-51" width="250.609375" height="102"/><g class="label" style="color:#111111 !important" transform="translate(-95.3046875, -36)"><rect/><foreignObject width="190.609375" height="72"><div style="color: rgb(17, 17, 17) !important; display: table-cell; white-space: nowrap; line-height: 1.5; max-width: 200px; text-align: center;" xmlns="http://www.w3.org/1999/xhtml"><span style="color:#111111 !important" class="nodeLabel"><p>Naming rules<br />PascalCase Silver and Gold<br />Bronze mimics source</p></span></div></foreignObject></g></g><g class="node default standard" id="my-svg-flowchart-TD-2" data-look="classic" transform="translate(163, 645)"><rect class="basic label-container" style="fill:#E8EEF7 !important;stroke:#50627A !important" x="-124.71875" y="-39" width="249.4375" height="78"/><g class="label" style="color:#111111 !important" transform="translate(-94.71875, -24)"><rect/><foreignObject width="189.4375" height="48"><div style="color: rgb(17, 17, 17) !important; display: table-cell; white-space: nowrap; line-height: 1.5; max-width: 200px; text-align: center;" xmlns="http://www.w3.org/1999/xhtml"><span style="color:#111111 !important" class="nodeLabel"><p>TableDictionary standard<br />metadata, PK, refresh SLA</p></span></div></foreignObject></g></g><g class="node default standard" id="my-svg-flowchart-SEC-3" data-look="classic" transform="translate(163, 773)"><rect class="basic label-container" style="fill:#E8EEF7 !important;stroke:#50627A !important" x="-129.171875" y="-39" width="258.34375" height="78"/><g class="label" style="color:#111111 !important" transform="translate(-99.171875, -24)"><rect/><foreignObject width="198.34375" height="48"><div style="color: rgb(17, 17, 17) !important; display: table-cell; white-space: nowrap; line-height: 1.5; max-width: 200px; text-align: center;" xmlns="http://www.w3.org/1999/xhtml"><span style="color:#111111 !important" class="nodeLabel"><p>Schema/security standard<br />least privilege and mapping</p></span></div></foreignObject></g></g><g class="node default standard" id="my-svg-flowchart-GOV-4" data-look="classic" transform="translate(163, 901)"><rect class="basic label-container" style="fill:#E8EEF7 !important;stroke:#50627A !important" x="-128.375" y="-39" width="256.75" height="78"/><g class="label" style="color:#111111 !important" transform="translate(-98.375, -24)"><rect/><foreignObject width="196.75" height="48"><div style="color: rgb(17, 17, 17) !important; display: table-cell; white-space: nowrap; line-height: 1.5; max-width: 200px; text-align: center;" xmlns="http://www.w3.org/1999/xhtml"><span style="color:#111111 !important" class="nodeLabel"><p>Design approval<br />Rakesh / assigned approver</p></span></div></foreignObject></g></g><g class="node default standard" id="my-svg-flowchart-BI-5" data-look="classic" transform="translate(163, 97)"><rect class="basic label-container" style="fill:#E8EEF7 !important;stroke:#50627A !important" x="-130" y="-51" width="260" height="102"/><g class="label" style="color:#111111 !important" transform="translate(-100, -36)"><rect/><foreignObject width="200" height="72"><div style="color: rgb(17, 17, 17) !important; display: table; white-space: break-spaces; line-height: 1.5; max-width: 200px; text-align: center; width: 200px;" xmlns="http://www.w3.org/1999/xhtml"><span style="color:#111111 !important" class="nodeLabel"><p>Legacy BI view rule<br />adapt for Fabric Direct Lake</p></span></div></foreignObject></g></g><g class="node default standard" id="my-svg-flowchart-PERF-6" data-look="classic" transform="translate(163, 1041)"><rect class="basic label-container" style="fill:#E8EEF7 !important;stroke:#50627A !important" x="-130" y="-51" width="260" height="102"/><g class="label" style="color:#111111 !important" transform="translate(-100, -36)"><rect/><foreignObject width="200" height="72"><div style="color: rgb(17, 17, 17) !important; display: table; white-space: break-spaces; line-height: 1.5; max-width: 200px; text-align: center; width: 200px;" xmlns="http://www.w3.org/1999/xhtml"><span style="color:#111111 !important" class="nodeLabel"><p>Performance and quality<br />PK, stats intent, duplicate tests</p></span></div></foreignObject></g></g><g class="node default bronze" id="my-svg-flowchart-BRZ-7" data-look="classic" transform="translate(898.9140625, 433)"><rect class="basic label-container" style="fill:#B86B2B !important;stroke:#6B3A12 !important" x="-138.3203125" y="-51" width="276.640625" height="102"/><g class="label" style="color:#FFFFFF !important" transform="translate(-108.3203125, -36)"><rect/><foreignObject width="216.640625" height="72"><div style="color: rgb(255, 255, 255) !important; display: table; white-space: break-spaces; line-height: 1.5; max-width: 200px; text-align: center; width: 200px;" xmlns="http://www.w3.org/1999/xhtml"><span style="color:#FFFFFF !important" class="nodeLabel"><p>Logical Bronze<br />Enterprise_Access_Lakehouse shortcuts</p></span></div></foreignObject></g></g><g class="node default staging" id="my-svg-flowchart-WRK-8" data-look="classic" transform="translate(1368.015625, 557)"><rect class="basic label-container" style="fill:#D9822B !important;stroke:#8A4A0A !important" x="-130" y="-51" width="260" height="102"/><g class="label" style="color:#FFFFFF !important" transform="translate(-100, -36)"><rect/><foreignObject width="200" height="72"><div style="color: rgb(255, 255, 255) !important; display: table; white-space: break-spaces; line-height: 1.5; max-width: 200px; text-align: center; width: 200px;" xmlns="http://www.w3.org/1999/xhtml"><span style="color:#FFFFFF !important" class="nodeLabel"><p>Exception Staging<br />Staging_WRK / BronzeMirror_WRK</p></span></div></foreignObject></g></g><g class="node default silver" id="my-svg-flowchart-ENH-9" data-look="classic" transform="translate(1804.984375, 433)"><rect class="basic label-container" style="fill:#C7CCD6 !important;stroke:#687080 !important" x="-130" y="-51" width="260" height="102"/><g class="label" style="color:#111111 !important" transform="translate(-100, -36)"><rect/><foreignObject width="200" height="72"><div style="color: rgb(17, 17, 17) !important; display: table; white-space: break-spaces; line-height: 1.5; max-width: 200px; text-align: center; width: 200px;" xmlns="http://www.w3.org/1999/xhtml"><span style="color:#111111 !important" class="nodeLabel"><p>Domain Silver<br />ForecastHistory / InventoryHistory</p></span></div></foreignObject></g></g><g class="node default gold" id="my-svg-flowchart-GWD-10" data-look="classic" transform="translate(2114.984375, 265)"><rect class="basic label-container" style="fill:#F2C94C !important;stroke:#9A6B00 !important" x="-130" y="-51" width="260" height="102"/><g class="label" style="color:#111111 !important" transform="translate(-100, -36)"><rect/><foreignObject width="200" height="72"><div style="color: rgb(17, 17, 17) !important; display: table; white-space: break-spaces; line-height: 1.5; max-width: 200px; text-align: center; width: 200px;" xmlns="http://www.w3.org/1999/xhtml"><span style="color:#111111 !important" class="nodeLabel"><p>Gold Physical Tables<br />Fact / Dim tables in Gold Warehouse</p></span></div></foreignObject></g></g><g class="node default gold" id="my-svg-flowchart-SEM-11" data-look="classic" transform="translate(2607.34375, 651)"><rect class="basic label-container" style="fill:#F2C94C !important;stroke:#9A6B00 !important" x="-119.78125" y="-39" width="239.5625" height="78"/><g class="label" style="color:#111111 !important" transform="translate(-89.78125, -24)"><rect/><foreignObject width="179.5625" height="48"><div style="color: rgb(17, 17, 17) !important; display: table-cell; white-space: nowrap; line-height: 1.5; max-width: 200px; text-align: center;" xmlns="http://www.w3.org/1999/xhtml"><span style="color:#111111 !important" class="nodeLabel"><p>Power BI Semantic Model<br />Direct Lake</p></span></div></foreignObject></g></g><g class="node default control" id="my-svg-flowchart-META-12" data-look="classic" transform="translate(523, 817)"><rect class="basic label-container" style="fill:#0B3D91 !important;stroke:#06275F !important" x="-130" y="-51" width="260" height="102"/><g class="label" style="color:#FFFFFF !important" transform="translate(-100, -36)"><rect/><foreignObject width="200" height="72"><div style="color: rgb(255, 255, 255) !important; display: table; white-space: break-spaces; line-height: 1.5; max-width: 200px; text-align: center; width: 200px;" xmlns="http://www.w3.org/1999/xhtml"><span style="color:#FFFFFF !important" class="nodeLabel"><p>v9 Meta Control Plane<br />sp_registry + vw_table_dictionary</p></span></div></foreignObject></g></g></g></g></g><defs><filter id="my-svg-drop-shadow" height="130%" width="130%"><feDropShadow dx="4" dy="4" stdDeviation="0" flood-opacity="0.06" flood-color="#000000"/></filter></defs><defs><filter id="my-svg-drop-shadow-small" height="150%" width="150%"><feDropShadow dx="2" dy="2" stdDeviation="0" flood-opacity="0.06" flood-color="#000000"/></filter></defs></svg>